<svg xmlns="http://www.w3.org/2000/svg" width="18" height="18" fill="none" viewBox="0 0 18 18">
    <g clip-path="url(#a)">
        <path fill="#3C1800" fill-opacity=".7" d="M17.386 3.516H.614A.615.615 0 0 0 0 4.13v9.719c0 .338.275.614.614.614h16.772a.615.615 0 0 0 .614-.614v-9.72a.615.615 0 0 0-.614-.613zM1.056 5.028L6.1 8.382l-5.045 4.391V5.028zM9 9.041L2.276 4.57h13.448L9 9.041zm-1.987-.053l1.647 1.094a.613.613 0 0 0 .68 0l1.647-1.095 5.077 4.42H1.936l5.077-4.42zm4.886-.607l5.045-3.353v7.745L11.9 8.381z"/>
    </g>
    <defs>
        <clipPath id="a">
            <path fill="#fff" d="M0 0h18v18H0z"/>
        </clipPath>
    </defs>
</svg>
