<svg xmlns="http://www.w3.org/2000/svg" width="20" height="21" fill="none" viewBox="0 0 20 21">
    <path fill="#bf1731" d="M17.656 0H2.344C1.05 0 0 1.067 0 2.377V17.91c0 1.311 1.051 2.378 2.344 2.378h15.312C18.95 20.288 20 19.22 20 17.91V2.377C20 1.067 18.949 0 17.656 0zm.782 17.91c0 .437-.351.793-.782.793h-4.453v-6.459h2.414l.399-2.457h-2.813V8.083c0-.672.509-1.188 1.172-1.188h1.602V4.438h-1.602c-1.99 0-3.593 1.635-3.593 3.652v1.697H8.437v2.457h2.345v6.459H2.344a.788.788 0 0 1-.781-.793V2.377c0-.436.35-.792.78-.792h15.313c.431 0 .782.356.782.792V17.91z"/>
</svg>
