<svg xmlns="http://www.w3.org/2000/svg" width="20" height="20" fill="none" viewBox="0 0 20 20">
    <path fill="#3C1800" d="M17.656 0H2.344A2.346 2.346 0 0 0 0 2.344v15.312A2.346 2.346 0 0 0 2.344 20h15.312A2.346 2.346 0 0 0 20 17.656V2.344A2.346 2.346 0 0 0 17.656 0zm.782 17.656c0 .431-.351.782-.782.782h-4.453V12.07h2.414l.399-2.422h-2.813v-1.68c0-.662.509-1.171 1.172-1.171h1.602V4.375h-1.602a3.593 3.593 0 0 0-3.593 3.6v1.673H8.437v2.422h2.345v6.367H2.344a.782.782 0 0 1-.781-.78V2.343c0-.431.35-.781.78-.781h15.313c.431 0 .782.35.782.78v15.313z"/>
</svg>
