<svg xmlns="http://www.w3.org/2000/svg" width="30" height="30" fill="none" viewBox="0 0 30 30">
    <path fill="#3C1800" fill-opacity=".5" d="M28.01 10.085h-2.078L20.07.24a.51.51 0 0 0-.131-.15.436.436 0 0 0-.171-.08.407.407 0 0 0-.185.002.439.439 0 0 0-.17.084.517.517 0 0 0-.128.153.597.597 0 0 0-.063.413.59.59 0 0 0 .075.195l5.496 9.228H5.608L11.103.857a.628.628 0 0 0 .011-.608.517.517 0 0 0-.128-.153.44.44 0 0 0-.17-.084.407.407 0 0 0-.184-.002.436.436 0 0 0-.17.08.512.512 0 0 0-.132.15l-5.863 9.845H1.99c-.26-.002-.519.056-.76.17-.241.115-.46.283-.646.496a2.34 2.34 0 0 0-.431.744 2.605 2.605 0 0 0 0 1.759c.1.278.246.531.431.744.185.213.405.381.646.495.241.114.5.172.76.17h.35l1.18 13.453c.044.517.253.996.586 1.345.333.348.767.54 1.215.539h19.36c.448.001.881-.19 1.214-.54a2.22 2.22 0 0 0 .587-1.344l1.18-13.452h.35c.26.001.519-.056.76-.17.241-.115.46-.283.646-.496.184-.213.331-.466.431-.744a2.606 2.606 0 0 0 0-1.759 2.342 2.342 0 0 0-.431-.744 1.984 1.984 0 0 0-.646-.495 1.747 1.747 0 0 0-.76-.17zm-2.463 17.921c-.022.249-.122.48-.283.648a.806.806 0 0 1-.585.26H5.321a.806.806 0 0 1-.585-.26 1.07 1.07 0 0 1-.283-.648l-1.17-13.342h23.434l-1.17 13.342zm2.464-14.429H1.989a.917.917 0 0 1-.4-.089 1.041 1.041 0 0 1-.34-.26 1.23 1.23 0 0 1-.227-.391 1.369 1.369 0 0 1 0-.925c.053-.147.13-.28.227-.391.098-.112.213-.2.34-.26a.917.917 0 0 1 .4-.09h26.022a.917.917 0 0 1 .4.09c.127.06.242.148.34.26.097.111.174.244.227.391a1.367 1.367 0 0 1 0 .925c-.053.146-.13.28-.227.391-.098.112-.213.2-.34.26a.917.917 0 0 1-.4.089z"/>
</svg>
