<svg xmlns="http://www.w3.org/2000/svg" width="20" height="21" fill="none" viewBox="0 0 20 21">
    <path fill="#bf1731" d="M14.19 0H5.81C2.606 0 0 2.644 0 5.893v8.502c0 3.25 2.606 5.893 5.81 5.893h8.38c3.204 0 5.81-2.644 5.81-5.893V5.893C20 2.643 17.394 0 14.19 0zm4.248 14.395c0 2.375-1.906 4.308-4.248 4.308H5.81c-2.342 0-4.247-1.933-4.247-4.308V5.893c0-2.375 1.905-4.308 4.247-4.308h8.38c2.342 0 4.248 1.933 4.248 4.308v8.502z"/>
    <path fill="#bf1731" d="M10 4.676c-2.972 0-5.39 2.453-5.39 5.468s2.418 5.468 5.39 5.468c2.972 0 5.39-2.453 5.39-5.468S12.973 4.676 10 4.676zm0 9.351c-2.11 0-3.828-1.742-3.828-3.883S7.889 6.261 10 6.261c2.11 0 3.828 1.742 3.828 3.883S12.111 14.027 10 14.027zM15.469 5.389a.787.787 0 0 0 .781-.793.787.787 0 0 0-.781-.792.787.787 0 0 0-.781.792c0 .438.35.793.78.793z"/>
</svg>
