<svg xmlns="http://www.w3.org/2000/svg" width="20" height="20" fill="none" viewBox="0 0 20 20">
    <path fill="#5F5F5F" d="M14.19 0H5.81C2.606 0 0 2.578 0 5.746v8.289c0 3.168 2.606 5.746 5.81 5.746h8.38c3.204 0 5.81-2.578 5.81-5.746V5.746C20 2.578 17.394 0 14.19 0zm4.248 14.035c0 2.316-1.906 4.2-4.248 4.2H5.81c-2.342 0-4.247-1.884-4.247-4.2V5.746c0-2.316 1.905-4.2 4.247-4.2h8.38c2.342 0 4.248 1.884 4.248 4.2v8.289z"/>
    <path fill="#5F5F5F" d="M10 4.56c-2.972 0-5.39 2.39-5.39 5.33s2.418 5.332 5.39 5.332c2.972 0 5.39-2.391 5.39-5.331 0-2.94-2.418-5.332-5.39-5.332zm0 9.117c-2.11 0-3.828-1.699-3.828-3.786 0-2.088 1.717-3.787 3.828-3.787 2.11 0 3.828 1.699 3.828 3.787 0 2.087-1.717 3.786-3.828 3.786zM15.469 5.254a.777.777 0 0 0 .781-.772.777.777 0 0 0-.781-.773.777.777 0 0 0-.781.773c0 .426.35.772.78.772z"/>
</svg>
