<?xml version="1.0" encoding="utf-8"?>
<!-- Generator: Adobe Illustrator 26.0.0, SVG Export Plug-In . SVG Version: 6.00 Build 0)  -->
<svg version="1.1" id="Слой_1" xmlns="http://www.w3.org/2000/svg" xmlns:xlink="http://www.w3.org/1999/xlink" x="0px" y="0px"
	 viewBox="0 0 585 292.5" style="enable-background:new 0 0 585 292.5;" xml:space="preserve">
<style type="text/css">
	.st0{fill:#21569F;}
	.st1{fill:#FDCC22;}
</style>
<g>
	<rect class="st0" width="292.5" height="97.67"/>
	<rect y="97.16" class="st1" width="292.5" height="97.67"/>
</g>
<g>
	<path d="M24.25,210.44v8.29c0,2.15,1.07,2.85,2.35,2.85c1.42,0,2.26-0.84,2.26-2.85v-8.29h3.72v7.98c0,4.6-2.72,5.91-6.04,5.91
		c-3.43,0-6.01-1.37-6.01-5.88v-8H24.25z"/>
	<path d="M35.42,210.44h3.68v5.69c0.89-1.17,3.14-3.86,4.59-5.69h4.4l-5.16,5.62l5.33,8.03h-4.38l-3.52-5.64l-1.27,1.28v4.36h-3.68
		V210.44z"/>
	<path d="M53.2,218.87v5.22h-3.61v-13.65h6.54c3.14,0,4.72,1.7,4.72,3.78c0,1.87-1.06,2.84-2,3.24c0.76,0.28,1.72,1.1,1.72,3.47
		v0.62c0,0.87,0.02,1.94,0.18,2.55h-3.53c-0.23-0.59-0.29-1.59-0.29-3.02v-0.29c0-1.26-0.3-1.91-2.21-1.91H53.2z M53.2,216.17h2.04
		c1.4,0,1.91-0.56,1.91-1.53c0-0.96-0.61-1.5-1.88-1.5H53.2V216.17z"/>
	<path d="M66.5,221.33l-0.86,2.76h-3.62l4.41-13.65h4.76l4.59,13.65H71.9l-0.9-2.76H66.5z M70.31,218.49
		c-0.73-2.36-1.28-4.23-1.6-5.54h-0.04c-0.32,1.44-0.89,3.44-1.51,5.54H70.31z"/>
	<path d="M81.09,210.44v13.65h-3.72v-13.65H81.09z"/>
	<path d="M84.23,224.09v-13.65h4.48c1.51,3.06,3.89,7.61,4.48,9.22h0.06c-0.15-1.39-0.18-3.81-0.18-6.01v-3.22h3.37v13.65h-4.26
		c-1.24-2.52-4.01-8.01-4.65-9.73h-0.05c0.12,1.22,0.14,3.96,0.14,6.38v3.35H84.23z"/>
	<path d="M103.29,210.44v13.65h-3.72v-13.65H103.29z"/>
	<path d="M109.42,221.33l-0.86,2.76h-3.62l4.41-13.65h4.76l4.59,13.65h-3.88l-0.9-2.76H109.42z M113.23,218.49
		c-0.73-2.36-1.28-4.23-1.6-5.54h-0.04c-0.32,1.44-0.89,3.44-1.51,5.54H113.23z"/>
	<path d="M120.3,224.09v-13.65h4.48c1.51,3.06,3.89,7.61,4.48,9.22h0.06c-0.15-1.39-0.18-3.81-0.18-6.01v-3.22h3.37v13.65h-4.26
		c-1.24-2.52-4.01-8.01-4.65-9.73h-0.05c0.12,1.22,0.14,3.96,0.14,6.38v3.35H120.3z"/>
	<path d="M149.87,218.47h-6.31v2.78h7.01l-0.42,2.84h-10.17v-13.65h10.16v2.84h-6.58v2.36h6.31V218.47z"/>
	<path d="M155.93,221.33l-0.86,2.76h-3.62l4.41-13.65h4.76l4.59,13.65h-3.88l-0.9-2.76H155.93z M159.74,218.49
		c-0.73-2.36-1.28-4.23-1.6-5.54h-0.04c-0.32,1.44-0.89,3.44-1.51,5.54H159.74z"/>
	<path d="M169.64,219.99c0.25,1.23,1.13,1.75,2.49,1.75c1.3,0,1.88-0.47,1.88-1.31c0-0.95-0.62-1.32-2.81-1.84
		c-3.95-0.95-4.78-2.39-4.78-4.23c0-2.35,1.74-4.16,5.35-4.16c3.86,0,5.42,1.99,5.61,4.1h-3.63c-0.11-0.74-0.49-1.54-2.02-1.54
		c-0.98,0-1.58,0.38-1.58,1.17c0,0.79,0.51,1.1,2.64,1.61c4.13,1.01,4.99,2.5,4.99,4.45c0,2.56-1.96,4.32-5.85,4.32
		c-3.66,0-5.63-1.73-5.94-4.34H169.64z"/>
	<path d="M182.67,213.28h-3.97v-2.84h11.62v2.84h-3.94v10.81h-3.71V213.28z"/>
	<path d="M201.91,218.47h-6.31v2.78h7.01l-0.42,2.84h-10.17v-13.65h10.16v2.84h-6.58v2.36h6.31V218.47z"/>
	<path d="M208.15,218.87v5.22h-3.61v-13.65h6.54c3.14,0,4.72,1.7,4.72,3.78c0,1.87-1.06,2.84-2,3.24c0.76,0.28,1.72,1.1,1.72,3.47
		v0.62c0,0.87,0.02,1.94,0.18,2.55h-3.53c-0.23-0.59-0.29-1.59-0.29-3.02v-0.29c0-1.26-0.3-1.91-2.21-1.91H208.15z M208.15,216.17
		h2.04c1.4,0,1.91-0.56,1.91-1.53c0-0.96-0.61-1.5-1.88-1.5h-2.06V216.17z"/>
	<path d="M221.93,224.09v-0.27c0-2.51,0.8-4.44,4.17-6.8c1.79-1.26,2.21-1.59,2.21-2.62c0-0.98-0.49-1.55-1.37-1.55
		c-1.11,0-1.46,0.68-1.61,1.79h-3.52c0.18-2.06,1.45-4.41,5.22-4.41c3.69,0,5.01,2.13,5.01,4.18c0,2-0.77,2.94-3.35,4.6
		c-1.48,0.96-2.19,1.67-2.49,2.3h6.3l-0.45,2.79H221.93z"/>
	<path d="M244.98,217.19c0,3.61-1.33,7.14-5.58,7.14c-4.07,0-5.56-3.28-5.56-7.06c0-3.5,1.52-7.05,5.63-7.05
		C243.43,210.22,244.98,213.51,244.98,217.19z M237.53,217.22c0,2.89,0.43,4.46,1.89,4.46c1.42,0,1.85-1.71,1.85-4.47
		c0-2.81-0.37-4.37-1.8-4.37C238.06,212.85,237.53,214.2,237.53,217.22z"/>
	<path d="M246.43,224.09v-0.27c0-2.51,0.8-4.44,4.17-6.8c1.79-1.26,2.21-1.59,2.21-2.62c0-0.98-0.49-1.55-1.37-1.55
		c-1.11,0-1.46,0.68-1.61,1.79h-3.52c0.18-2.06,1.45-4.41,5.22-4.41c3.69,0,5.01,2.13,5.01,4.18c0,2-0.77,2.94-3.35,4.6
		c-1.48,0.96-2.19,1.67-2.49,2.3h6.3l-0.45,2.79H246.43z"/>
	<path d="M258.88,224.09v-0.27c0-2.51,0.8-4.44,4.17-6.8c1.79-1.26,2.21-1.59,2.21-2.62c0-0.98-0.49-1.55-1.37-1.55
		c-1.11,0-1.46,0.68-1.61,1.79h-3.52c0.18-2.06,1.45-4.41,5.22-4.41c3.69,0,5.01,2.13,5.01,4.18c0,2-0.77,2.94-3.35,4.6
		c-1.48,0.96-2.19,1.67-2.49,2.3h6.3l-0.45,2.79H258.88z"/>
</g>
<g>
	<path d="M20.71,253.94h5.87v1.1h-4.59v2.83h4.3v1.1h-4.3v3.99h-1.28V253.94z"/>
	<path d="M27.73,258.15c0-0.89-0.01-1.41-0.01-1.79h1.21c0.02,0.18,0.04,0.72,0.04,1.32c0.34-0.88,1.11-1.45,2.21-1.48v1.22
		c-1.35,0.03-2.21,0.69-2.21,2.38v3.16h-1.24V258.15z"/>
	<path d="M33.06,259.89c0.01,1.27,0.65,2.2,1.74,2.2c1,0,1.33-0.51,1.53-0.98h1.24c-0.26,0.84-0.97,2-2.81,2
		c-2.09,0-2.95-1.68-2.95-3.38c0-1.98,1-3.53,3.02-3.53c2.15,0,2.86,1.7,2.86,3.14c0,0.2,0,0.37-0.02,0.55H33.06z M36.44,259.04
		c-0.01-1.04-0.53-1.88-1.62-1.88c-1.12,0-1.61,0.78-1.72,1.88H36.44z"/>
	<path d="M40.01,259.89c0.01,1.27,0.65,2.2,1.74,2.2c1,0,1.33-0.51,1.53-0.98h1.24c-0.26,0.84-0.97,2-2.81,2
		c-2.09,0-2.95-1.68-2.95-3.38c0-1.98,1-3.53,3.02-3.53c2.15,0,2.86,1.7,2.86,3.14c0,0.2,0,0.37-0.02,0.55H40.01z M43.39,259.04
		c-0.01-1.04-0.53-1.88-1.62-1.88c-1.12,0-1.61,0.78-1.72,1.88H43.39z"/>
	<path d="M51.74,253.43v7.67c0,0.62,0,1.23,0.01,1.86h-1.19c-0.03-0.18-0.06-0.66-0.06-0.9c-0.33,0.66-0.98,1.06-2.05,1.06
		c-1.69,0-2.74-1.37-2.74-3.39c0-2.03,1.13-3.53,2.96-3.53c1.14,0,1.66,0.45,1.83,0.81v-3.58H51.74z M46.99,259.69
		c0,1.55,0.72,2.39,1.74,2.39c1.5,0,1.82-1.13,1.82-2.51c0-1.42-0.29-2.34-1.73-2.34C47.68,257.24,46.99,258.14,46.99,259.69z"/>
	<path d="M59.38,259.65c0,1.92-1.11,3.47-3.13,3.47c-1.91,0-3.07-1.46-3.07-3.45c0-1.96,1.14-3.47,3.14-3.47
		C58.17,256.2,59.38,257.57,59.38,259.65z M54.44,259.66c0,1.42,0.7,2.44,1.84,2.44c1.16,0,1.82-0.97,1.82-2.43
		c0-1.47-0.65-2.44-1.84-2.44C55.08,257.22,54.44,258.17,54.44,259.66z"/>
	<path d="M60.83,258.06c0-0.57,0-1.16-0.01-1.7H62c0.02,0.19,0.05,0.66,0.05,0.98c0.31-0.58,0.88-1.14,1.91-1.14
		c0.94,0,1.56,0.48,1.81,1.16c0.36-0.61,0.97-1.16,2.1-1.16c1.08,0,2.08,0.64,2.08,2.42v4.34h-1.21v-4.19
		c0-0.74-0.27-1.52-1.26-1.52c-1.03,0-1.48,0.77-1.48,1.92v3.79h-1.21v-4.15c0-0.83-0.23-1.55-1.23-1.55c-1.02,0-1.5,0.8-1.5,2.04
		v3.66h-1.22V258.06z"/>
	<path d="M75.33,253.94h3.53c1.94,0,2.83,1.02,2.83,2.26c0,1.04-0.59,1.72-1.28,1.96c0.63,0.2,1.57,0.84,1.57,2.15
		c0,1.68-1.29,2.65-3.03,2.65h-3.62V253.94z M78.63,257.66c1.26,0,1.75-0.5,1.75-1.35c0-0.78-0.56-1.32-1.58-1.32h-2.19v2.67H78.63z
		 M76.61,261.9h2.17c1.12,0,1.87-0.52,1.87-1.6c0-0.95-0.61-1.58-2.07-1.58h-1.97V261.9z"/>
	<path d="M83.5,262.96v-9.53h1.24v9.53H83.5z"/>
	<path d="M92.02,261.04c0,0.64,0.01,1.51,0.01,1.92h-1.2c-0.03-0.17-0.04-0.57-0.04-0.96c-0.33,0.72-0.96,1.11-1.97,1.11
		c-1.15,0-2.19-0.59-2.19-2.42v-4.34h1.23v4.08c0,0.85,0.27,1.62,1.32,1.62c1.16,0,1.61-0.64,1.61-2.24v-3.45h1.24V261.04z"/>
	<path d="M94.74,259.89c0.01,1.27,0.65,2.2,1.74,2.2c1,0,1.33-0.51,1.53-0.98h1.24c-0.26,0.84-0.97,2-2.81,2
		c-2.09,0-2.95-1.68-2.95-3.38c0-1.98,1-3.53,3.02-3.53c2.15,0,2.86,1.7,2.86,3.14c0,0.2,0,0.37-0.02,0.55H94.74z M98.13,259.04
		c-0.01-1.04-0.53-1.88-1.62-1.88c-1.12,0-1.61,0.78-1.72,1.88H98.13z"/>
	<path d="M26.45,273.2h-4.46v3.07h4.91l-0.16,1.1h-6.01v-9.03h5.95v1.1h-4.68v2.64h4.46V273.2z"/>
	<path d="M28.21,272.44c0-0.57,0-1.16-0.01-1.66h1.2c0.03,0.19,0.05,0.85,0.05,1.05c0.26-0.55,0.8-1.21,2.06-1.21
		c1.25,0,2.2,0.78,2.2,2.52v4.24h-1.24v-4.09c0-0.96-0.37-1.62-1.35-1.62c-1.18,0-1.67,0.88-1.67,2.18v3.52h-1.24V272.44z"/>
	<path d="M36.4,274.31c0.01,1.27,0.65,2.2,1.74,2.2c1,0,1.33-0.51,1.53-0.98h1.24c-0.26,0.84-0.97,2-2.81,2
		c-2.09,0-2.95-1.68-2.95-3.38c0-1.98,1-3.53,3.02-3.53c2.15,0,2.86,1.7,2.86,3.14c0,0.2,0,0.37-0.02,0.55H36.4z M39.78,273.46
		c-0.01-1.04-0.53-1.88-1.62-1.88c-1.12,0-1.61,0.78-1.72,1.88H39.78z"/>
	<path d="M42.48,272.57c0-0.89-0.01-1.41-0.01-1.79h1.21c0.02,0.18,0.04,0.72,0.04,1.32c0.34-0.88,1.11-1.45,2.21-1.48v1.22
		c-1.35,0.03-2.21,0.69-2.21,2.38v3.16h-1.24V272.57z"/>
	<path d="M52.49,276.75c0,2.12-0.86,3.34-3.07,3.34c-2.06,0-2.66-1.15-2.77-2.03h1.26c0.18,0.69,0.73,1.06,1.56,1.06
		c1.46,0,1.81-0.92,1.81-2.41v-0.5c-0.35,0.72-0.95,1.13-2.04,1.13c-1.64,0-2.73-1.34-2.73-3.25c0-2.14,1.25-3.47,2.86-3.47
		c1.24,0,1.77,0.59,1.91,1c0.01-0.28,0.04-0.71,0.06-0.85h1.17c-0.01,0.41-0.02,1.27-0.02,1.91V276.75z M47.8,274.03
		c0,1.36,0.7,2.26,1.74,2.26c1.38,0,1.78-0.93,1.78-2.35c0-1.43-0.36-2.3-1.74-2.3C48.42,271.65,47.8,272.62,47.8,274.03z"/>
	<path d="M54.39,267.85h1.24v1.45h-1.24V267.85z M54.39,270.77h1.24v6.6h-1.24V270.77z"/>
	<path d="M56.97,276.39l3.73-4.59h-3.54v-1.03h4.95v1.02l-3.67,4.56h3.86l-0.19,1.03h-5.13V276.39z"/>
	<path d="M63.49,267.85h1.24v1.45h-1.24V267.85z M63.49,270.77h1.24v6.6h-1.24V270.77z"/>
	<path d="M66.64,272.44c0-0.57,0-1.16-0.01-1.66h1.2c0.03,0.19,0.05,0.85,0.05,1.05c0.26-0.55,0.8-1.21,2.06-1.21
		c1.25,0,2.2,0.78,2.2,2.52v4.24H70.9v-4.09c0-0.96-0.37-1.62-1.35-1.62c-1.18,0-1.67,0.88-1.67,2.18v3.52h-1.24V272.44z"/>
	<path d="M79.55,276.75c0,2.12-0.86,3.34-3.07,3.34c-2.06,0-2.66-1.15-2.77-2.03h1.26c0.18,0.69,0.73,1.06,1.56,1.06
		c1.46,0,1.81-0.92,1.81-2.41v-0.5c-0.35,0.72-0.95,1.13-2.04,1.13c-1.64,0-2.73-1.34-2.73-3.25c0-2.14,1.25-3.47,2.86-3.47
		c1.24,0,1.77,0.59,1.91,1c0.01-0.28,0.04-0.71,0.06-0.85h1.17c-0.01,0.41-0.02,1.27-0.02,1.91V276.75z M74.86,274.03
		c0,1.36,0.7,2.26,1.74,2.26c1.38,0,1.78-0.93,1.78-2.35c0-1.43-0.36-2.3-1.74-2.3C75.48,271.65,74.86,272.62,74.86,274.03z"/>
	<path d="M86.92,277.38v-3.29c0-0.09-0.02-0.18-0.06-0.25l-3.17-5.48h1.48c0.8,1.45,2.06,3.71,2.47,4.53
		c0.39-0.8,1.69-3.09,2.52-4.53h1.38l-3.26,5.5c-0.03,0.06-0.06,0.1-0.06,0.24v3.29H86.92z"/>
	<path d="M92.04,274.31c0.01,1.27,0.65,2.2,1.74,2.2c1,0,1.33-0.51,1.53-0.98h1.24c-0.26,0.84-0.97,2-2.81,2
		c-2.09,0-2.95-1.68-2.95-3.38c0-1.98,1-3.53,3.02-3.53c2.15,0,2.86,1.7,2.86,3.14c0,0.2,0,0.37-0.02,0.55H92.04z M95.42,273.46
		c-0.01-1.04-0.53-1.88-1.62-1.88c-1.12,0-1.61,0.78-1.72,1.88H95.42z"/>
	<path d="M98.14,277.38v-9.53h1.24v9.53H98.14z"/>
	<path d="M101.28,277.38v-9.53h1.24v9.53H101.28z"/>
	<path d="M110.16,274.06c0,1.92-1.11,3.47-3.13,3.47c-1.91,0-3.07-1.46-3.07-3.45c0-1.96,1.14-3.47,3.14-3.47
		C108.95,270.62,110.16,271.99,110.16,274.06z M105.23,274.07c0,1.42,0.7,2.44,1.84,2.44c1.16,0,1.82-0.97,1.82-2.43
		c0-1.47-0.65-2.44-1.84-2.44C105.87,271.64,105.23,272.58,105.23,274.07z"/>
	<path d="M112.21,270.77c0.79,3.04,1.24,4.77,1.35,5.47h0.02c0.12-0.63,0.55-2.19,1.47-5.47h1.2c0.99,3.67,1.29,4.74,1.4,5.35h0.01
		c0.16-0.7,0.41-1.69,1.41-5.35h1.25l-2.03,6.6h-1.33c-0.63-2.42-1.22-4.53-1.36-5.26h-0.01c-0.12,0.74-0.68,2.67-1.4,5.26h-1.37
		l-1.91-6.6H112.21z"/>
</g>
<g>
	<path class="st0" d="M403.13,109.38h12.05v2.23h-9.47v5.89h8.88v2.23h-8.88v8.25h-2.58V109.38z"/>
	<path class="st0" d="M420.95,119.85v8.12h-2.59v-18.59h7.36c3.84,0,5.89,2.09,5.89,4.99c0,2.42-1.38,3.88-3.12,4.38
		c1.46,0.4,2.79,1.52,2.79,4.75v0.81c0,1.28-0.05,2.88,0.25,3.67h-2.54c-0.34-0.8-0.32-2.25-0.32-4.01v-0.38
		c0-2.59-0.72-3.72-4.03-3.72H420.95z M420.95,117.67h3.98c2.78,0,3.99-1.05,3.99-3.08c0-1.93-1.26-3.02-3.73-3.02h-4.24V117.67z"/>
	<path class="st0" d="M451.94,118.57c0,5.12-2.89,9.66-8.77,9.66c-5.51,0-8.56-4.23-8.56-9.56c0-5.33,3.14-9.56,8.78-9.56
		C448.65,109.11,451.94,113.03,451.94,118.57z M437.35,118.59c0,3.98,2.01,7.43,5.94,7.43c4.24,0,5.92-3.5,5.92-7.41
		c0-3.96-1.9-7.28-5.92-7.28C439.16,111.33,437.35,114.66,437.35,118.59z"/>
	<path class="st0" d="M471.65,120.14c0-3.42,0.04-6.94,0.12-8.91h-0.1c-0.8,3.09-3.7,10.89-5.8,16.74h-2.33
		c-1.59-4.79-4.58-13.55-5.42-16.78h-0.09c0.14,2.15,0.21,6.25,0.21,9.44v7.34h-2.46v-18.59h3.9c2.05,5.68,4.53,12.99,5.16,15.4
		h0.04c0.44-1.85,3.39-9.86,5.51-15.4h3.79v18.59h-2.55V120.14z"/>
	<path class="st0" d="M344.82,155.77l-6.36-18.41h5.34l2.4,8.07c0.75,2.49,1.22,4.32,1.64,6.33h0.07c0.36-1.85,0.9-3.71,1.7-6.28
		l2.5-8.13h5.12l-6.51,18.41H344.82z"/>
	<path class="st0" d="M361.55,152.05l-1.16,3.72h-4.89l5.95-18.41h6.42l6.2,18.41h-5.24l-1.22-3.72H361.55z M366.69,148.22
		c-0.99-3.18-1.73-5.71-2.16-7.48h-0.06c-0.44,1.94-1.21,4.65-2.03,7.48H366.69z"/>
	<path class="st0" d="M376.24,155.77v-18.41h6.04c2.04,4.13,5.25,10.27,6.04,12.44h0.08c-0.21-1.88-0.24-5.14-0.24-8.1v-4.34h4.55
		v18.41h-5.75c-1.68-3.4-5.41-10.81-6.27-13.13h-0.07c0.16,1.65,0.19,5.35,0.19,8.61v4.53H376.24z"/>
	<path class="st0" d="M401.96,137.36v18.41h-5.01v-18.41H401.96z"/>
	<path class="st0" d="M406.2,137.36h5.02v14.59h8.82l-0.55,3.83H406.2V137.36z"/>
	<path class="st0" d="M446,146.53c0,5.18-3.14,9.55-9.34,9.55c-6.07,0-9.08-4.28-9.08-9.52c0-5.33,3.33-9.53,9.35-9.53
		C442.61,137.04,446,140.96,446,146.53z M432.75,146.49c0,3.43,1.25,5.85,4.08,5.85c3.01,0,4.02-2.62,4.02-5.76
		c0-3.36-1.1-5.79-4.1-5.79C433.95,140.79,432.75,143.03,432.75,146.49z"/>
	<path class="st0" d="M449.14,137.36h7.75c5.69,0,9.13,3.64,9.13,8.99c0,5.33-3.34,9.42-9.25,9.42h-7.62V137.36z M454.15,152.02
		h2.33c3.08,0,4.37-2.22,4.37-5.67c0-2.98-1.21-5.24-4.32-5.24h-2.38V152.02z"/>
	<path class="st0" d="M482.5,148.19h-8.51v3.75h9.46l-0.57,3.83h-13.72v-18.41h13.7v3.83h-8.87v3.18h8.51V148.19z"/>
	<path class="st0" d="M489.9,150.24c0.34,1.67,1.53,2.36,3.37,2.36c1.75,0,2.54-0.63,2.54-1.77c0-1.29-0.84-1.78-3.79-2.48
		c-5.33-1.27-6.45-3.23-6.45-5.7c0-3.18,2.35-5.61,7.22-5.61c5.21,0,7.31,2.68,7.57,5.53h-4.9c-0.15-1-0.67-2.08-2.72-2.08
		c-1.32,0-2.14,0.51-2.14,1.59c0,1.06,0.69,1.49,3.56,2.17c5.57,1.36,6.73,3.38,6.73,6.01c0,3.46-2.65,5.82-7.89,5.82
		c-4.94,0-7.59-2.33-8.02-5.85H489.9z"/>
	<path class="st0" d="M507.64,150.24c0.34,1.67,1.53,2.36,3.37,2.36c1.75,0,2.54-0.63,2.54-1.77c0-1.29-0.84-1.78-3.79-2.48
		c-5.33-1.27-6.45-3.23-6.45-5.7c0-3.18,2.35-5.61,7.22-5.61c5.21,0,7.31,2.68,7.57,5.53h-4.9c-0.15-1-0.67-2.08-2.72-2.08
		c-1.32,0-2.14,0.51-2.14,1.59c0,1.06,0.69,1.49,3.56,2.17c5.57,1.36,6.73,3.38,6.73,6.01c0,3.46-2.65,5.82-7.89,5.82
		c-4.94,0-7.59-2.33-8.02-5.85H507.64z"/>
	<path class="st0" d="M526.06,152.05l-1.16,3.72h-4.89l5.95-18.41h6.42l6.2,18.41h-5.24l-1.22-3.72H526.06z M531.2,148.22
		c-0.99-3.18-1.73-5.71-2.16-7.48h-0.06c-0.44,1.94-1.21,4.65-2.03,7.48H531.2z"/>
	<path class="st1" d="M373.29,183.57l-4.96-18.59h2.77c1.47,6.33,3.36,13.64,3.69,15.76h0.03c0.51-2.5,2.99-11.04,4.19-15.76h2.52
		c1.1,4.09,3.57,13.32,4.01,15.65h0.03c0.6-3.3,3.12-11.92,4.11-15.65h2.58l-5.39,18.59h-2.8c-1.11-4.26-3.43-12.84-3.9-15.17h-0.03
		c-0.57,2.83-2.89,10.95-4.07,15.17H373.29z"/>
	<path class="st1" d="M397.78,164.98v18.59h-2.62v-18.59H397.78z"/>
	<path class="st1" d="M406.6,167.21h-5.97v-2.23h14.58v2.23h-5.98v16.36h-2.63V167.21z"/>
	<path class="st1" d="M417.85,164.98h2.62v7.71h9.47v-7.71h2.62v18.59h-2.62v-8.65h-9.47v8.65h-2.62V164.98z"/>
	<path class="st1" d="M444.15,164.98h2.62v16.36h9.65l-0.35,2.23h-11.92V164.98z"/>
	<path class="st1" d="M474.95,174.18c0,5.12-2.89,9.66-8.77,9.66c-5.51,0-8.56-4.23-8.56-9.56c0-5.33,3.14-9.56,8.78-9.56
		C471.66,164.71,474.95,168.63,474.95,174.18z M460.36,174.2c0,3.98,2.01,7.43,5.94,7.43c4.24,0,5.92-3.5,5.92-7.41
		c0-3.96-1.9-7.28-5.92-7.28C462.17,166.93,460.36,170.26,460.36,174.2z"/>
	<path class="st1" d="M483.19,183.57l-6.75-18.59h2.81l3.22,9.2c0.95,2.72,1.87,5.41,2.28,7.13h0.05c0.39-1.54,1.41-4.35,2.38-7.05
		l3.36-9.29h2.7l-6.97,18.59H483.19z"/>
	<path class="st1" d="M507.77,174.95h-9.21v6.4h10.12l-0.33,2.23H496v-18.59h12.21v2.23h-9.65v5.51h9.21V174.95z"/>
</g>
</svg>
