<svg width="580" height="133" viewBox="0 0 580 133" fill="none" xmlns="http://www.w3.org/2000/svg">
<path d="M75.5801 73.824H85.2281C93.9641 58.368 103.372 44.976 113.452 33.648C115.372 31.44 117.196 30.336 118.924 30.336H122.668C123.532 30.336 123.964 30.624 123.964 31.2C123.868 31.584 123.772 31.872 123.676 32.064C123.676 32.256 123.436 32.688 122.956 33.36L88.9721 88.656C87.7241 90.768 87.1001 92.256 87.1001 93.12C87.1001 93.888 87.6761 94.272 88.8281 94.272C91.9001 94.272 95.2601 92.784 98.9081 89.808C102.172 87.312 104.764 84.672 106.684 81.888C106.78 81.504 107.068 81.408 107.548 81.6C108.028 81.792 108.124 82.176 107.836 82.752C105.532 86.304 102.364 89.472 98.3321 92.256C94.3001 94.944 90.3161 96.288 86.3801 96.288C82.8281 96.288 81.0521 93.84 81.0521 88.944C81.0521 85.104 82.2041 80.736 84.5081 75.84H73.9961C66.3161 83.232 59.0681 88.752 52.2521 92.4C45.9161 95.76 39.8681 97.44 34.1081 97.44C30.8441 97.44 28.6841 96.432 27.6281 94.416C27.3401 93.936 27.1961 93.408 27.1961 92.832C27.1961 92.256 27.3401 91.536 27.6281 90.672C28.4921 88.08 30.4601 86.544 33.5321 86.064C34.1081 85.968 34.4441 86.256 34.5401 86.928C34.7321 87.6 34.0601 88.08 32.5241 88.368C30.9881 88.656 30.0761 89.808 29.7881 91.824C29.3081 94.128 30.6041 95.28 33.6761 95.28C37.2281 95.28 41.8361 92.88 47.5001 88.08C51.6281 84.624 55.4201 80.688 58.8761 76.272H50.5241C49.6601 76.272 49.2281 75.984 49.2281 75.408C49.2281 74.736 49.6601 74.4 50.5241 74.4H60.3161L64.4921 68.784C69.0041 62.352 73.0361 55.392 76.5881 47.904C81.8681 37.44 84.5081 29.184 84.5081 23.136C84.5081 18.432 82.1081 14.4 77.3081 11.04C73.9481 8.832 70.4441 7.53599 66.7961 7.15199C72.3641 11.472 75.1481 17.856 75.1481 26.304C75.1481 30.144 74.5241 33.792 73.2761 37.248C70.6841 44.928 66.3161 51.744 60.1721 57.696C54.1241 63.648 47.2601 67.776 39.5801 70.08C37.5641 70.752 35.2601 71.088 32.6681 71.088C27.2921 71.088 22.9241 69.696 19.5641 66.912C17.1641 64.896 15.3881 62.304 14.2361 59.136C13.1801 55.968 12.6521 52.224 12.6521 47.904C12.6521 44.544 13.2761 41.184 14.5241 37.824C15.8681 34.368 17.7881 30.816 20.2841 27.168C24.7001 20.832 30.1241 15.744 36.5561 11.904C40.1081 9.888 43.4681 8.304 46.6361 7.15199C49.9001 6 53.2601 5.232 56.7161 4.848C52.9721 3.504 48.8921 2.832 44.4761 2.832C33.1481 2.832 23.5481 6.24 15.6761 13.056C11.9321 16.224 8.86006 20.256 6.46006 25.152C4.15606 29.952 3.00406 34.416 3.00406 38.544C3.10006 39.312 3.14806 39.888 3.14806 40.272C2.76406 40.752 2.38006 40.992 1.99606 40.992C1.22806 41.184 0.796062 40.992 0.700062 40.416C0.604062 39.456 0.556062 38.688 0.556062 38.112C0.556062 33.984 1.75606 29.424 4.15606 24.432C6.46006 19.44 9.62806 15.216 13.6601 11.76C22.5881 4.27199 32.6681 0.527993 43.9001 0.527993C50.2361 0.527993 56.3801 1.82399 62.3321 4.41599C66.0761 4.41599 69.6761 5.04 73.1321 6.288C76.5881 7.44 79.8041 9.072 82.7801 11.184C89.3081 15.984 92.5721 22.128 92.5721 29.616C92.5721 36.24 90.6041 44.304 86.6681 53.808C84.9401 57.936 83.2121 61.584 81.4841 64.752C79.7561 67.92 77.7881 70.944 75.5801 73.824ZM16.1081 42.288C15.2441 45.168 14.8121 47.904 14.8121 50.496C14.8121 55.968 16.3961 60.432 19.5641 63.888C22.7321 67.344 27.0521 69.072 32.5241 69.072C40.1081 69.072 47.7881 65.76 55.5641 59.136C61.9001 53.664 66.7001 47.136 69.9641 39.552C71.6921 35.52 72.5561 30.912 72.5561 25.728C72.5561 16.224 68.3801 9.648 60.0281 6C49.2761 7.248 40.0121 11.04 32.2361 17.376C24.4601 23.712 19.0841 32.016 16.1081 42.288ZM137.964 63.744L139.98 61.296H151.644L134.364 86.784C133.308 88.32 132.78 89.52 132.78 90.384C132.78 90.864 133.068 91.2 133.644 91.392C138.924 92.064 148.716 83.808 163.02 66.624L165.9 66.336L161.292 71.808C159.372 74.208 157.26 76.56 154.956 78.864C153.132 80.688 150.972 82.752 148.476 85.056C141.276 91.392 135.852 94.32 132.204 93.84C128.652 93.264 126.876 91.2 126.876 87.648L127.308 84.192C125.772 85.728 124.38 87.168 123.132 88.512C121.788 89.76 120.828 90.576 120.252 90.96C117.66 92.976 115.356 93.984 113.34 93.984C108.924 93.984 106.716 91.008 106.716 85.056C106.716 78.912 109.116 73.296 113.916 68.208C119.388 62.64 125.34 59.856 131.772 59.856C134.46 59.856 136.524 61.152 137.964 63.744ZM114.06 89.232C114.06 90.384 114.54 90.96 115.5 90.96C118.284 90.96 122.652 87.072 128.604 79.296C129.66 78.144 131.34 75.552 133.644 71.52C134.796 69.696 135.516 67.728 135.804 65.616C136.092 63.984 135.66 63.072 134.508 62.88C130.956 62.208 126.684 65.472 121.692 72.672C116.604 79.872 114.06 85.392 114.06 89.232ZM156.578 89.664L129.506 131.28H118.994L165.362 61.296H175.154L173.426 64.176C177.074 61.296 180.242 59.856 182.93 59.856C187.25 59.856 189.41 62.64 189.41 68.208C189.41 74.64 186.338 80.592 180.194 86.064C178.658 87.408 177.17 88.608 175.73 89.664C183.218 85.536 190.898 79.296 198.77 70.944L201.794 70.368C188.258 85.344 176.978 93.072 167.954 93.552L169.538 92.832C166.946 93.6 164.258 93.984 161.474 93.984C158.69 93.984 157.058 92.544 156.578 89.664ZM176.594 63.6C173.522 66.288 170.114 70.08 166.37 74.976C161.474 81.216 159.026 85.44 159.026 87.648C158.834 88.992 158.978 89.904 159.458 90.384C159.938 90.768 160.514 90.96 161.186 90.96C162.05 90.96 162.77 90.72 163.346 90.24C167.186 88.32 171.266 84.768 175.586 79.584C180.29 74.016 182.642 69.264 182.642 65.328C182.642 63.12 181.97 62.016 180.626 62.016C179.282 62.016 177.938 62.544 176.594 63.6ZM197.218 89.664L170.146 131.28H159.634L206.002 61.296H215.794L214.066 64.176C217.714 61.296 220.882 59.856 223.57 59.856C227.89 59.856 230.05 62.64 230.05 68.208C230.05 74.64 226.978 80.592 220.834 86.064C219.298 87.408 217.81 88.608 216.37 89.664C223.858 85.536 231.538 79.296 239.41 70.944L242.434 70.368C228.898 85.344 217.618 93.072 208.594 93.552L210.178 92.832C207.586 93.6 204.898 93.984 202.114 93.984C199.33 93.984 197.698 92.544 197.218 89.664ZM217.234 63.6C214.162 66.288 210.754 70.08 207.01 74.976C202.114 81.216 199.666 85.44 199.666 87.648C199.474 88.992 199.618 89.904 200.098 90.384C200.578 90.768 201.154 90.96 201.826 90.96C202.69 90.96 203.41 90.72 203.986 90.24C207.826 88.32 211.906 84.768 216.226 79.584C220.93 74.016 223.282 69.264 223.282 65.328C223.282 63.12 222.61 62.016 221.266 62.016C219.922 62.016 218.578 62.544 217.234 63.6ZM257.299 61.296L241.459 84.048C240.019 86.064 239.299 87.552 239.299 88.512C239.299 89.376 239.731 89.808 240.595 89.808C242.131 89.808 245.299 87.36 250.099 82.464C252.691 79.776 254.995 77.088 257.011 74.4L267.235 61.296H276.739L259.315 87.216C263.251 85.776 271.891 79.104 285.235 67.2L287.683 66.912C285.955 68.736 284.035 70.608 281.923 72.528C279.811 74.448 277.363 76.512 274.579 78.72C271.315 81.312 268.243 83.568 265.363 85.488C262.483 87.408 259.987 88.848 257.875 89.808L248.371 103.632C244.147 109.776 239.491 115.536 234.403 120.912C226.819 128.784 220.771 132.48 216.259 132C214.435 132 213.283 130.992 212.803 128.976C212.707 128.592 212.659 128.016 212.659 127.248C212.659 122.256 216.787 115.824 225.043 107.952C232.627 100.656 239.539 95.52 245.779 92.544L252.547 82.464C248.899 86.208 246.211 88.752 244.483 90.096C241.219 92.784 238.531 93.888 236.419 93.408C233.827 92.64 232.531 90.816 232.531 87.936C232.531 82.176 237.427 73.296 247.219 61.296H257.299ZM222.307 113.424C217.795 118.512 215.155 122.928 214.387 126.672C214.387 129.072 214.915 130.32 215.971 130.416C219.139 130.896 228.595 119.136 244.339 95.136C237.619 98.592 230.275 104.688 222.307 113.424ZM368.451 50.352C374.691 50.352 379.203 50.496 381.987 50.784C384.771 50.976 386.739 51.6 387.891 52.656C388.275 53.04 388.467 53.52 388.467 54.096C388.467 54.384 388.371 54.816 388.179 55.392C387.507 56.352 385.731 56.832 382.851 56.832C380.259 56.832 375.459 56.016 368.451 54.384C366.435 54.384 363.747 55.104 360.387 56.544C354.339 58.944 349.107 62.736 344.691 67.92C339.699 73.2 336.771 78.912 335.907 85.056C335.811 85.632 335.763 86.496 335.763 87.648C335.763 90.816 336.675 93.12 338.499 94.56C339.171 87.744 343.011 81.12 350.019 74.688C359.139 66.432 368.643 62.304 378.531 62.304C382.851 62.304 386.403 63.072 389.187 64.608C392.931 66.624 394.803 69.552 394.803 73.392C394.803 78.096 392.019 82.944 386.451 87.936C382.323 91.584 377.523 94.752 372.051 97.44C363.315 105.888 355.971 110.112 350.019 110.112C345.891 110.112 342.723 108.576 340.515 105.504C338.787 103.008 337.923 100.512 337.923 98.016L332.595 95.136C327.507 91.488 324.963 86.592 324.963 80.448C324.963 65.184 338.067 55.296 364.275 50.784L361.107 46.176C356.787 47.04 351.795 47.472 346.131 47.472C330.099 47.472 319.059 44.448 313.011 38.4C310.419 35.904 309.123 32.688 309.123 28.752C309.123 23.664 311.619 19.344 316.611 15.792C320.739 12.72 324.915 10.848 329.139 10.176C333.459 9.408 337.395 9.024 340.947 9.024C353.139 9.024 363.939 11.904 373.347 17.664C376.707 16.224 380.547 15.168 384.867 14.496C389.187 13.728 393.555 13.344 397.971 13.344C400.083 13.344 402.003 13.584 403.731 14.064C405.459 14.448 407.139 15.12 408.771 16.08C411.747 17.616 413.235 19.584 413.235 21.984C413.235 22.752 412.995 23.76 412.515 25.008C410.403 29.712 403.827 34.176 392.787 38.4C388.179 40.128 383.811 41.568 379.683 42.72C375.651 43.776 371.571 44.544 367.443 45.024C367.347 45.984 367.299 46.656 367.299 47.04C367.299 48.96 367.683 50.064 368.451 50.352ZM320.499 15.792C314.547 19.44 311.571 23.76 311.571 28.752C311.571 31.92 312.387 34.464 314.019 36.384C319.011 42.24 329.619 45.168 345.843 45.168C351.795 45.168 356.595 44.832 360.243 44.16C359.763 42.432 359.523 40.704 359.523 38.976C359.523 30.24 363.363 23.472 371.043 18.672C363.075 13.392 353.091 10.752 341.091 10.752C333.027 10.752 326.163 12.432 320.499 15.792ZM410.067 25.44C410.547 24.288 410.787 23.28 410.787 22.416C410.787 18.672 408.483 16.8 403.875 16.8C396.675 16.8 389.379 19.632 381.987 25.296L383.715 27.888C383.811 28.08 383.811 28.272 383.715 28.464C383.715 28.56 383.715 28.656 383.715 28.752C382.947 28.944 381.795 28.128 380.259 26.304C377.475 28.32 374.883 30.864 372.483 33.936C369.411 37.776 367.731 40.8 367.443 43.008C374.163 42.24 382.179 40.08 391.491 36.528C401.955 32.688 408.147 28.992 410.067 25.44ZM382.995 54.384C382.611 53.808 381.747 53.424 380.403 53.232C379.155 53.04 378.291 52.944 377.811 52.944C377.331 52.944 376.995 52.944 376.803 52.944C375.843 52.944 375.171 53.136 374.787 53.52C375.843 54.096 377.283 54.48 379.107 54.672H381.699C382.467 54.672 382.899 54.576 382.995 54.384ZM390.051 72.672C390.051 67.104 386.307 64.32 378.819 64.32C372.963 64.32 367.107 65.952 361.251 69.216C355.875 72.192 351.171 76.128 347.139 81.024C343.203 85.824 340.995 90.816 340.515 96C340.611 96.576 341.331 97.104 342.675 97.584C345.555 98.928 348.867 99.6 352.611 99.6C358.755 99.6 364.515 98.208 369.891 95.424C373.155 92.544 375.939 88.848 378.243 84.336C380.547 79.824 381.891 75.456 382.275 71.232C382.371 70.944 382.467 70.752 382.563 70.656C382.659 70.464 382.755 70.32 382.851 70.224C383.427 70.032 383.907 70.272 384.291 70.944C384.387 71.232 384.435 71.712 384.435 72.384C384.435 74.688 383.379 78.144 381.267 82.752C379.251 87.36 377.235 90.96 375.219 93.552C385.107 86.736 390.051 79.776 390.051 72.672ZM349.875 107.952C354.963 107.952 360.483 105.12 366.435 99.456C361.539 100.992 356.787 101.76 352.179 101.76C347.283 101.76 343.443 100.848 340.659 99.024C340.659 101.424 341.571 103.488 343.395 105.216C345.315 107.04 347.475 107.952 349.875 107.952ZM432.995 63.744L435.011 61.296H446.675L429.395 86.784C428.339 88.32 427.811 89.52 427.811 90.384C427.811 90.864 428.099 91.2 428.675 91.392C433.955 92.064 443.747 83.808 458.051 66.624L460.931 66.336L456.323 71.808C454.403 74.208 452.291 76.56 449.987 78.864C448.163 80.688 446.003 82.752 443.507 85.056C436.307 91.392 430.883 94.32 427.235 93.84C423.683 93.264 421.907 91.2 421.907 87.648L422.339 84.192C420.803 85.728 419.411 87.168 418.163 88.512C416.819 89.76 415.859 90.576 415.283 90.96C412.691 92.976 410.387 93.984 408.371 93.984C403.955 93.984 401.747 91.008 401.747 85.056C401.747 78.912 404.147 73.296 408.947 68.208C414.419 62.64 420.371 59.856 426.803 59.856C429.491 59.856 431.555 61.152 432.995 63.744ZM409.091 89.232C409.091 90.384 409.571 90.96 410.531 90.96C413.315 90.96 417.683 87.072 423.635 79.296C424.691 78.144 426.371 75.552 428.675 71.52C429.827 69.696 430.547 67.728 430.835 65.616C431.123 63.984 430.691 63.072 429.539 62.88C425.987 62.208 421.715 65.472 416.723 72.672C411.635 79.872 409.091 85.392 409.091 89.232ZM469.177 57.408C469.177 58.848 468.265 60.336 466.441 61.872C469.129 65.136 470.473 69.12 470.473 73.824C470.473 77.568 468.505 81.984 464.569 87.072C467.737 85.728 472.153 82.416 477.817 77.136C482.617 72.624 486.457 68.592 489.337 65.04L492.073 64.464C483.721 74.544 475.945 81.984 468.745 86.784C461.545 91.584 454.873 93.984 448.729 93.984C445.849 93.984 443.785 92.832 442.537 90.528C442.249 89.76 442.105 88.992 442.105 88.224C442.105 86.688 442.681 85.248 443.833 83.904C444.985 82.56 446.377 81.888 448.009 81.888C449.545 81.792 450.697 82.128 451.465 82.896C452.137 84.144 452.281 85.152 451.897 85.92C451.225 88.032 448.873 89.328 444.841 89.808L445.705 91.104L447.145 91.248C449.737 91.248 452.521 89.328 455.497 85.488C458.089 82.32 459.865 79.2 460.825 76.128C461.977 73.344 462.553 70.848 462.553 68.64L462.121 65.328L459.961 66.336L459.241 65.328C459.145 64.848 459.625 63.984 460.681 62.736L462.841 60C464.089 57.6 465.241 56.256 466.297 55.968C467.833 55.488 468.793 55.968 469.177 57.408ZM519.87 33.504L509.934 48.048H519.87V50.352H508.206L486.03 83.472C484.302 86.064 483.438 87.936 483.438 89.088C483.438 90.432 484.158 91.104 485.598 91.104C488.382 91.104 492.702 88.176 498.558 82.32C503.454 77.808 508.158 72.528 512.67 66.48L515.406 66.192C513.294 69.168 510.894 72.144 508.206 75.12C505.614 78 502.878 80.784 499.998 83.472C496.446 86.928 493.182 89.568 490.206 91.392C487.23 93.12 484.83 93.984 483.006 93.984C479.454 93.984 477.678 91.872 477.678 87.648C477.678 82.848 481.134 75.168 488.046 64.608L497.406 50.352H488.622V48.048H498.846L509.07 33.504H519.87ZM512.665 91.248C515.353 91.248 518.809 89.76 523.033 86.784C529.273 82.56 535.849 76.08 542.761 67.344L545.641 67.056C531.433 85.008 519.625 93.984 510.217 93.984C504.745 93.984 502.009 90.768 502.009 84.336C502.009 79.728 503.737 75.264 507.193 70.944C510.073 67.2 513.913 64.224 518.713 62.016C521.785 60.48 524.473 59.712 526.777 59.712C527.545 59.712 528.697 59.808 530.233 60C531.769 60.192 532.825 61.392 533.401 63.6C533.689 64.464 533.833 65.232 533.833 65.904C533.833 70.032 530.137 73.392 522.745 75.984C521.977 76.272 520.489 76.656 518.281 77.136C516.073 77.52 514.585 77.76 513.817 77.856C510.841 81.984 509.353 85.488 509.353 88.368C509.353 90.288 510.457 91.248 512.665 91.248ZM514.825 75.696C516.649 76.08 519.673 74.976 523.897 72.384C528.121 69.792 530.233 67.008 530.233 64.032C530.233 63.36 529.945 62.928 529.369 62.736C526.777 62.256 523.753 63.984 520.297 67.92C517.897 70.8 516.073 73.392 514.825 75.696ZM548.478 61.584C550.206 60.432 552.174 59.856 554.382 59.856C556.494 59.856 558.27 60.384 559.71 61.44C561.246 62.4 562.014 63.744 562.014 65.472C562.014 67.872 559.134 72.672 553.374 79.872C549.342 85.056 547.326 88.464 547.326 90.096C547.326 90.576 547.518 90.96 547.902 91.248L548.766 91.536C551.454 91.536 556.35 88.08 563.454 81.168C568.638 75.984 572.862 71.088 576.126 66.48L579.006 66.192C576.03 70.032 573.534 73.104 571.518 75.408C569.214 78.096 566.574 80.832 563.598 83.616C559.95 87.168 556.638 89.808 553.662 91.536C550.686 93.168 548.046 93.984 545.742 93.984C541.71 93.984 539.694 91.632 539.694 86.928C539.694 82.896 542.622 77.472 548.478 70.656C551.454 67.68 552.942 65.424 552.942 63.888C552.942 63.216 552.654 62.88 552.078 62.88C551.502 62.88 550.254 63.6 548.334 65.04L544.878 68.496L542.142 67.776L543.438 66.336C542.67 66.528 542.142 66.624 541.854 66.624C540.51 66.624 539.694 65.952 539.406 64.608C539.022 63.072 539.838 61.584 541.854 60.144C543.102 59.28 544.446 58.944 545.886 59.136C547.614 59.136 548.478 59.952 548.478 61.584ZM541.278 64.176C541.278 64.368 541.614 64.56 542.286 64.752C543.342 64.752 544.398 64.272 545.454 63.312C546.126 62.736 546.462 62.16 546.462 61.584C546.462 61.008 546.126 60.72 545.454 60.72C544.494 60.72 543.534 61.152 542.574 62.016C541.518 62.784 541.086 63.504 541.278 64.176Z" fill="#FEFEFB"/>
</svg>
