<svg width="126" height="41" viewBox="0 0 126 41" fill="none" xmlns="http://www.w3.org/2000/svg">
<path d="M16.3 2.3C20.9 0.100004 26.6 0.400007 31.1 2.60001C33 3.60001 35 4.89999 36 6.89999C35.1 6.09999 34.4 5.2 33.5 4.5C30.1 2 25.6 1.00001 21.4 1.60001C18.4 2.00001 15.4 3.4 13.4 5.8C12.5 6.8 12 8.1 11.4 9.3C9.80002 16.1 11 18.7 11 23.6C11.4 23.9 11.8 24.3 12.1 24.6C10.9 24.5 9.60002 24.6 8.40002 24.6C8.90002 24.2 9.70004 23.8 9.60004 23V22.6C9.60004 21.2 9.60003 19.9 9.50003 18.4V17.5C7.80003 17.5 5.90003 17.6 4.20003 17.6C4.20003 19.6 4.20003 21.7 4.20003 23.7C4.60003 24 4.90003 24.3 5.30003 24.6C4.00003 24.6 2.80003 24.6 1.50003 24.6C1.90003 24.3 2.30004 24 2.60004 23.7C2.70004 19.6 2.60004 15.5 2.60004 11.4C2.20004 11.1 1.80002 10.8 1.40002 10.4C2.70002 10.4 3.90003 10.4 5.20003 10.4C4.80003 10.7 4.50004 11 4.10004 11.4C4.00004 13.2 4.10004 14.9 4.10004 16.7C5.90004 16.7 7.70002 16.7 9.40002 16.7C9.40002 12.2 10.2 4.8 16.3 2.3Z" stroke="white" stroke-width="0.4289" stroke-miterlimit="22.9256"/>
<path d="M16.3 2.3C20.9 0.100004 26.6 0.400007 31.1 2.60001C33 3.60001 35 4.89999 36 6.89999C35.1 6.09999 34.4 5.2 33.5 4.5C30.1 2 25.6 1.00001 21.4 1.60001C18.4 2.00001 15.4 3.4 13.4 5.8C12.5 6.8 12 8.1 11.4 9.3C9.80002 16.1 11 18.7 11 23.6C11.4 23.9 11.8 24.3 12.1 24.6C10.9 24.5 9.60002 24.6 8.40002 24.6C8.90002 24.2 9.70004 23.8 9.60004 23V22.6C9.60004 21.2 9.60003 19.9 9.50003 18.4V17.5C7.80003 17.5 5.90003 17.6 4.20003 17.6C4.20003 19.6 4.20003 21.7 4.20003 23.7C4.60003 24 4.90003 24.3 5.30003 24.6C4.00003 24.6 2.80003 24.6 1.50003 24.6C1.90003 24.3 2.30004 24 2.60004 23.7C2.70004 19.6 2.60004 15.5 2.60004 11.4C2.20004 11.1 1.80002 10.8 1.40002 10.4C2.70002 10.4 3.90003 10.4 5.20003 10.4C4.80003 10.7 4.50004 11 4.10004 11.4C4.00004 13.2 4.10004 14.9 4.10004 16.7C5.90004 16.7 7.70002 16.7 9.40002 16.7C9.40002 12.2 10.2 4.8 16.3 2.3Z" fill="white"/>
<path d="M18.4 10.3999C18.6 10.3999 19 10.3 19.2 10.2C20.1 13.6 22 20.4 22.6 22.8C22.7 23.6 23.5 24 24.1 24.6C22.8 24.6 21.5 24.6 20.1 24.6C20.2 24.5 20.4 24.2 20.5 24.1L21 24.5C21.2 22.7 20.5 21.0999 20.1 19.3999C18.9 19.3999 17.7 19.3999 16.6 19.3999C16.5 19.7999 16.4 20.2 16.3 20.6L15.5 23.7C15.8 24 16.2 24.3 16.5 24.7C15.4 24.7 14.3 24.6 13.1 24.7C13.5 24.3 14 24 14.4 23.5C15 22.1 15.2 20.6 15.8 19.2L15.9 18.7C16.8 15.9 17.6 13.0999 18.4 10.3999ZM16.9 18.5C17.9 18.5 18.9 18.5 19.9 18.5C19.5 16.7 19.1 14.8 18.5 13C17.9 14.8 17.4 16.6 16.9 18.5Z" stroke="white" stroke-width="0.4289" stroke-miterlimit="22.9256"/>
<path d="M18.4 10.3999C18.6 10.3999 19 10.3 19.2 10.2C20.1 13.6 22 20.4 22.6 22.8C22.7 23.6 23.5 24 24.1 24.6C22.8 24.6 21.5 24.6 20.1 24.6C20.2 24.5 20.4 24.2 20.5 24.1L21 24.5C21.2 22.7 20.5 21.0999 20.1 19.3999H18.3V18.5C18.8 18.5 19.3 18.5 19.8 18.5C19.4 16.7 19 14.8 18.4 13L18.3 13.3999V10.7L18.4 10.3999ZM18.3 19.3999C17.7 19.3999 17.1 19.3999 16.5 19.3999C16.4 19.7999 16.3 20.2 16.2 20.6L15.4 23.7C15.7 24 16.1 24.3 16.4 24.7C15.3 24.7 14.2 24.6 13 24.7C13.4 24.3 13.9 24 14.3 23.5C14.9 22.1 15.1 20.6 15.7 19.2L15.8 18.7C16.6 16 17.4 13.4 18.2 10.7V13.3999C17.7 15.0999 17.2 16.8 16.7 18.5C17.2 18.5 17.7 18.5 18.2 18.5V19.3999H18.3Z" fill="white"/>
<path d="M43.1001 10.5C44.4001 10.6 45.7001 10.5 46.9001 10.5C46.6001 10.9 46.3001 11.1 45.9001 11.4C46.4001 13.5 47.5001 15.4 48.2001 17.4C49.0001 15.5 49.8001 13.5 50.4001 11.5C50.0001 11.2 49.6001 10.8 49.2001 10.4H52.7001C52.3001 10.7 51.9001 11 51.5001 11.3C50.7001 13 50.0001 14.9 49.3001 16.6C48.2001 18.7 48.8001 21.2 48.7001 23.5C49.1001 23.8 49.5001 24.2 49.9001 24.5C48.4001 24.4 47.3001 24.4 45.9001 24.5C46.3001 24.1 46.9001 23.8 47.2001 23.3C47.2001 21.7 47.3001 20 47.2001 18.4C46.4001 16.3 45.5001 14.2 44.6001 12.1C44.3001 11.5 43.5001 11.1 43.1001 10.5Z" stroke="white" stroke-width="0.4289" stroke-miterlimit="22.9256"/>
<path d="M43.1001 10.5C44.4001 10.6 45.7001 10.5 46.9001 10.5C46.6001 10.9 46.3001 11.1 45.9001 11.4C46.4001 13.5 47.5001 15.4 48.2001 17.4C49.0001 15.5 49.8001 13.5 50.4001 11.5C50.0001 11.2 49.6001 10.8 49.2001 10.4H52.7001C52.3001 10.7 51.9001 11 51.5001 11.3C50.7001 13 50.0001 14.9 49.3001 16.6C48.2001 18.7 48.8001 21.2 48.7001 23.5C49.1001 23.8 49.5001 24.2 49.9001 24.5C48.4001 24.4 47.3001 24.4 45.9001 24.5C46.3001 24.1 46.9001 23.8 47.2001 23.3C47.2001 21.7 47.3001 20 47.2001 18.4C46.4001 16.3 45.5001 14.2 44.6001 12.1C44.3001 11.5 43.5001 11.1 43.1001 10.5Z" fill="white"/>
<path fill-rule="evenodd" clip-rule="evenodd" d="M27.8001 18.7C27.8001 20.4 27.8001 22 27.9001 23.7C28.3001 24 28.8001 24.3 29.2001 24.7C27.8001 24.7 26.5001 24.7 25.1001 24.7C25.5001 24.4 25.9001 24.1 26.3001 23.7C26.3001 19.6 26.3001 15.5 26.3001 11.4C25.9001 11.1 25.5001 10.8 25.2001 10.4C27.2001 10.5 29.1001 10.3 31.1001 10.4C31.7001 11.1 32.5001 11.7 32.7001 12.7C33.1001 14.5 32.9001 16.7 31.4001 17.9C30.4001 18.8 29.1001 18.8 27.8001 18.7ZM27.9001 11.3V17.7C28.8001 17.9 29.8001 18 30.5001 17.2C31.6001 15.9 31.4001 14 31.0001 12.5C30.6001 11.2 29.0001 11.2 27.9001 11.3Z" fill="white"/>
<path d="M25.2001 10.4999C27.2001 10.5999 29.1001 10.3999 31.1001 10.4999C31.7001 11.1999 32.5001 11.7999 32.7001 12.7999C33.1001 14.5999 32.9001 16.7999 31.4001 17.9999C30.4001 18.7999 29.0001 18.7999 27.8001 18.6999C27.8001 20.3999 27.8001 21.9999 27.9001 23.6999C28.3001 23.9999 28.8001 24.2999 29.2001 24.6999C27.8001 24.6999 26.5001 24.6999 25.1001 24.6999C25.5001 24.3999 25.9001 24.0999 26.3001 23.6999C26.3001 19.5999 26.3001 15.4999 26.3001 11.3999C26.0001 11.0999 25.6001 10.7999 25.2001 10.4999ZM27.9001 11.2999V17.6999C28.8001 17.8999 29.8001 17.9999 30.5001 17.1999C31.6001 15.8999 31.4001 13.9999 31.0001 12.4999C30.6001 11.1999 29.0001 11.1999 27.9001 11.2999Z" fill="white"/>
<path d="M34.5 10.5C35.3 10.5 40.1 10.5 40.4 10.5C42.6 12 42.6 15.2 41.3 17.3C40.4 18.7 38.6 18.9 37.1 18.7C37.1 20.4 37.1 22 37.2 23.7C37.6 24 38.1 24.3 38.5 24.6C37.2 24.6 35.8 24.6 34.5 24.6C34.9 24.3 35.3 24 35.7 23.6V11.3C35.2 11.1 34.8 10.8 34.5 10.5ZM37.1 11.3C37.1 13.5 37.1 15.7 37.1 17.9C38 18 39.2 18 39.8 17.2C40.7 15.9 40.6 14.1 40.2 12.7C39.8 11.3 38.3 11.1 37.1 11.3Z" stroke="white" stroke-width="0.4289" stroke-miterlimit="22.9256"/>
<path d="M38.8 10.5C39.6 10.5 40.3 10.5 40.4 10.5C42.6 12 42.6 15.2 41.3 17.3C40.7 18.2 39.8 18.6 38.8 18.7V17.8C39.2 17.7 39.6 17.5 39.8 17.1C40.7 15.8 40.6 14 40.2 12.6C40 11.9 39.4 11.5 38.8 11.4V10.5ZM34.5 10.5C35 10.5 37.3 10.5 38.8 10.5V11.4C38.3 11.3 37.6 11.3 37.1 11.3C37.1 13.5 37.1 15.7 37.1 17.9C37.6 17.9 38.3 18 38.8 17.8V18.7C38.2 18.8 37.6 18.8 37.1 18.7C37.1 20.4 37.1 22 37.2 23.7C37.6 24 38.1 24.3 38.5 24.6C37.2 24.6 35.8 24.6 34.5 24.6C34.9 24.3 35.3 24 35.7 23.6V11.3C35.2 11.1 34.8 10.8 34.5 10.5Z" fill="white"/>
<path d="M71.1 9.40001C71.9 9.20001 72.7 9.00001 73.4 9.40001C75.7 10.4 78.2 21.7 79.5 24.7C81.6 28.3 84.1 31.7 87.4 34.3C90.9 32.3 96.5 26.5 100.9 28.5C102.9 29.4 104.2 31.5 104.1 33.7C104 36.6 102.2 39.5 99.3 40.4C96.9 41.2 93 39.7 91.1 38.6C89.8 38.1 88.7 37.3 87.6 36.4C87.3 36.2 87.1 36 86.8 35.8C86.3 36.2 85.6 36.2 85 36.5C73.8 41 59.2 32.8 54.1 22.9C54.7 23.4 55 24 55.5 24.6C62.7 34 73.9 39.9 85.8 34.9C80.9 30.5 78.4 25.1 76.5 19.1C74.7 19.1 73 19.1 72 19.1C71.7 19.9 70.3 23.5 70.7 23.2C70.9 23.6 71.2 23.9 71.6 24C70.5 24.1 69.3 24.2 68.2 24C68.9 23.9 69.6 23.4 69.8 22.7C71.1 19 72.3 15.3 73.6 11.7C73.7 11.4 73.8 11.2 73.8 10.9C73.5 10.4 73.1 9.90001 72.6 9.70001C72.2 9.60001 71.6 9.70001 71.1 9.40001ZM72.1 18.7C73.5 18.7 74.9 18.7 76.3 18.7L74.3 12C73.6 14.2 72.9 16.5 72.1 18.7ZM88.3 35.1C91.6 37.7 95.8 40.8 100.1 38.9C101.9 38.1 103.2 36.3 103.6 34.4C103.9 33.2 103.5 32.1 103.1 31C102.4 30.2 101.8 29.4 100.8 29C96.4 26.7 91.7 32.9 88.3 35.1ZM85.9 35.5C86 35.7 86 35.7 85.9 35.5V35.5Z" stroke="white" stroke-width="0.4286" stroke-miterlimit="22.9256"/>
<path d="M96 28.7C97.7 28 99.3 27.8 100.9 28.5C102.9 29.4 104.2 31.5 104.1 33.7C104 36.6 102.2 39.5 99.3 40.4C98.4 40.7 97.2 40.7 96 40.4V39.2C97.3 39.5 98.7 39.4 100.1 38.8C101.9 38 103.2 36.2 103.6 34.3C103.9 33.1 103.5 32 103.1 30.9C102.4 30.1 101.8 29.3 100.8 28.9C99.2 28.1 97.6 28.4 96 29.1V28.7V28.7ZM86 33C86.5 33.4 87 33.9 87.5 34.3C89.8 33 93 30 96.1 28.7V29.2C93.3 30.6 90.6 33.7 88.4 35.1C90.6 36.8 93.3 38.8 96.1 39.4V40.6C94.3 40.3 92.4 39.5 91.2 38.8C89.9 38.3 88.8 37.5 87.7 36.6C87.4 36.4 87.2 36.2 86.9 36C86.6 36.2 86.3 36.3 86 36.4V35.7V33V33ZM74.2 10.1C76.2 12.9 78.4 22 79.5 24.7C81.2 27.8 83.3 30.7 85.9 33.1V35.6V35.5V35.6V36.3C85.6 36.4 85.3 36.5 85 36.7C81.6 38.1 77.8 38.3 74.2 37.6V36.8C77.9 37.3 81.8 36.8 85.8 35.2C80.9 30.8 78.4 25.4 76.5 19.4C75.7 19.4 75 19.4 74.3 19.4V18.8C75 18.8 75.7 18.8 76.4 18.8L74.4 12.1L74.3 12.5V10.1H74.2ZM71.1 9.40001C71.9 9.20001 72.7 9.00001 73.4 9.40001C73.7 9.50001 73.9 9.80002 74.2 10.1V12.4C73.5 14.5 72.8 16.6 72.1 18.7C72.8 18.7 73.5 18.7 74.2 18.7V19.3C73.3 19.3 72.5 19.3 72 19.3C71.7 20.1 70.3 23.7 70.7 23.4C70.9 23.8 71.2 24.1 71.6 24.2C70.5 24.3 69.3 24.4 68.2 24.2C68.9 24.1 69.6 23.6 69.8 22.9C71.1 19.2 72.3 15.5 73.6 11.9C73.7 11.6 73.8 11.4 73.8 11.1C73.5 10.6 73.1 10.1 72.6 9.90001C72.2 9.60001 71.6 9.70001 71.1 9.40001ZM74.2 37.6V36.8C66.8 35.8 60.2 31.1 55.5 24.8C55 24.3 54.7 23.6 54.1 23.1C57.7 29.9 65.8 36 74.2 37.6Z" fill="white"/>
<path d="M59.2 10.4C61 10.2 62.9 10.6 64.7 10C64.7 10.9 64.7 11.7 64.7 12.6C64.5 12 64.5999 11.2 63.8999 11C63.1999 10.9 62.4999 11 61.7999 10.9C61.6999 12.9 61.7999 15 61.7999 17C62.8999 17 63.9999 17.1 65.0999 17C65.6999 16.9 65.6999 16.1 65.8999 15.6C65.8999 16.7 65.9999 17.9 65.8999 19C65.6999 18.5 65.7999 17.8 65.0999 17.7C63.9999 17.6 62.8999 17.7 61.8999 17.7C61.8999 19.7 61.8999 21.7 61.8999 23.6C63.2999 23.5 64.6999 23.7 66.0999 23.5C67.4999 23.3 67.9999 21.9 68.4999 20.8C68.3999 22 67.8999 23 67.5999 24.1C65.7999 24.1 64 24.1 62.2 24.1H59.4999C59.7999 24 60.0999 23.8 60.3999 23.7C60.6999 23.5 60.8999 23.3 60.8999 23L60.7 10.7C60.2 10.6 59.6 10.6 59.2 10.4Z" stroke="white" stroke-width="0.4286" stroke-miterlimit="22.9256"/>
<path d="M59.2 10.4C61 10.2 62.9 10.6 64.7 10C64.7 10.9 64.7 11.7 64.7 12.6C64.5 12 64.5999 11.2 63.8999 11C63.1999 10.9 62.4999 11 61.7999 10.9C61.6999 12.9 61.7999 15 61.7999 17C62.8999 17 63.9999 17.1 65.0999 17C65.6999 16.9 65.6999 16.1 65.8999 15.6C65.8999 16.7 65.9999 17.9 65.8999 19C65.6999 18.5 65.7999 17.8 65.0999 17.7C63.9999 17.6 62.8999 17.7 61.8999 17.7C61.8999 19.7 61.8999 21.7 61.8999 23.6C63.2999 23.5 64.6999 23.7 66.0999 23.5C67.4999 23.3 67.9999 21.9 68.4999 20.8C68.3999 22 67.8999 23 67.5999 24.1C65.7999 24.1 64 24.1 62.2 24.1H59.4999C59.7999 24 60.0999 23.8 60.3999 23.7C60.6999 23.5 60.8999 23.3 60.8999 23L60.7 10.7C60.2 10.6 59.6 10.6 59.2 10.4Z" fill="white"/>
<path d="M83.9 10.3C84.9 9.89997 86 10.3 87.1 10.3C87.1 11.1 87.2 12 87.1 12.8C86.9 12.2 86.8 11.5 86.3 11.1C85.7 10.6 84.8 10.5 84.1 10.9C82.8 11.7 82.6 13.7 83.7 14.8C85.3 16.2 88.5 19.1 88.5 21.2C88.8 23.1 87.8 25.3 86 26C84.4 26.5 82.6 25.8 81.8 25.1C80.3 23.4 80.4 20.5 82 18.9C81.8 19.6 81.3 20.3 81.2 21.1C81 22.3 81.1 23.8 82.1 24.7C83.1 25.8 84.8 25.9 86 25C87.5 24 88.7 21.8 86.3 19.2C85.2 18 83.9 17 82.8 15.8C81.5 14.2 82.5 10.8 83.9 10.3Z" stroke="white" stroke-width="0.4286" stroke-miterlimit="22.9256"/>
<path d="M83.9 10.3C84.9 9.89997 86 10.3 87.1 10.3C87.1 11.1 87.2 12 87.1 12.8C86.9 12.2 86.8 11.5 86.3 11.1C85.7 10.6 84.8 10.5 84.1 10.9C82.8 11.7 82.6 13.7 83.7 14.8C85.3 16.2 88.5 19.1 88.5 21.2C88.8 23.1 87.8 25.3 86 26C84.4 26.5 82.6 25.8 81.8 25.1C80.3 23.4 80.4 20.5 82 18.9C81.8 19.6 81.3 20.3 81.2 21.1C81 22.3 81.1 23.8 82.1 24.7C83.1 25.8 84.8 25.9 86 25C87.5 24 88.7 21.8 86.3 19.2C85.2 18 83.9 17 82.8 15.8C81.5 14.2 82.5 10.8 83.9 10.3Z" fill="white"/>
<path d="M93.4999 10.3C95.2999 10.3 97.1999 10.5 98.9999 10L99.0999 10.1C99.0999 10.9 99.1999 11.7 98.9999 12.5C98.8999 12.1 98.8 11.7 98.7 11.2C98.1 10.7 97.2999 10.9 96.5999 10.8C95.9999 10.9 95.3999 10.9 94.7999 10.9L94.8999 23.2C95.2999 23.6 95.7999 23.9 96.2999 24.1H92.3999C93.7999 23.7 93.4999 23.8 93.7999 23.1V10.9C92.4999 10.9 91.1999 10.9 89.8999 10.9C87.7999 11 88.1999 13.1 88.2999 14.3C87.9999 14 87.9 13.6 87.7 13.2C87.8 11.7 87.8 10.8 89.7 10.3C91 10.3 92.1999 10.4 93.4999 10.3Z" stroke="white" stroke-width="0.4286" stroke-miterlimit="22.9256"/>
<path d="M93.4999 10.3C95.2999 10.3 97.1999 10.5 98.9999 10L99.0999 10.1C99.0999 10.9 99.1999 11.7 98.9999 12.5C98.8999 12.1 98.8 11.7 98.7 11.2C98.1 10.7 97.2999 10.9 96.5999 10.8C95.9999 10.9 95.3999 10.9 94.7999 10.9L94.8999 23.2C95.2999 23.6 95.7999 23.9 96.2999 24.1H92.3999C93.7999 23.7 93.4999 23.8 93.7999 23.1V10.9C92.4999 10.9 91.1999 10.9 89.8999 10.9C87.7999 11 88.1999 13.1 88.2999 14.3C87.9999 14 87.9 13.6 87.7 13.2C87.8 11.7 87.8 10.8 89.7 10.3C91 10.3 92.1999 10.4 93.4999 10.3Z" fill="white"/>
<path d="M100.3 10.4C102.1 10.3 104 10.5 105.8 10.1C105.8 10.9 105.8 11.7 105.8 12.4C105.8 12.4 105.7 12.4 105.6 12.4C105.6 11.9 105.5 11.2 104.9 11C104.2 10.9 103.5 11 102.8 11C102.8 13 102.9 15.1 102.9 17C104 17.3 105 17.2 106.2 17.1C106.8 16.9 106.8 16.2 107 15.7C107 16.8 107.1 17.9 106.9 19.1C106.7 18.6 106.7 17.9 106.2 17.8C105.1 17.7 104 17.8 102.9 17.8C102.9 19.8 102.9 21.7 102.9 23.7C106.4 23.5 108.4 24.6 109.4 21C109.4 22.2 108.8 23.2 108.5 24.4C106.1 24.4 103.8 24.4 101.4 24.4C101.1 24.4 100.7 24.4 100.4 24.3C101.3 24.3 101.5 23.6 101.7 23.2C101.6 23.2 101.9 23.2 101.7 23.2C101.8 20.4 101.6 17.6 101.8 14.8C101.7 13.7 101.8 12.7 101.7 11.6C101.5 10.7 100.8 10.6 100.3 10.4Z" stroke="white" stroke-width="0.4286" stroke-miterlimit="22.9256"/>
<path d="M100.3 10.4C102.1 10.3 104 10.5 105.8 10.1C105.8 10.9 105.8 11.7 105.8 12.4C105.8 12.4 105.7 12.4 105.6 12.4C105.6 11.9 105.5 11.2 104.9 11C104.2 10.9 103.5 11 102.8 11C102.8 13 102.9 15.1 102.9 17C104 17.3 105 17.2 106.2 17.1C106.8 16.9 106.8 16.2 107 15.7C107 16.8 107.1 17.9 106.9 19.1C106.7 18.6 106.7 17.9 106.2 17.8C105.1 17.7 104 17.8 102.9 17.8C102.9 19.8 102.9 21.7 102.9 23.7C106.4 23.5 108.4 24.6 109.4 21C109.4 22.2 108.8 23.2 108.5 24.4C106.1 24.4 103.8 24.4 101.4 24.4C101.1 24.4 100.7 24.4 100.4 24.3C101.3 24.3 101.5 23.6 101.7 23.2C101.6 23.2 101.9 23.2 101.7 23.2C101.8 20.4 101.6 17.6 101.8 14.8C101.7 13.7 101.8 12.7 101.7 11.6C101.5 10.7 100.8 10.6 100.3 10.4Z" fill="white"/>
<path d="M110.2 10.4C111.6 10.3 113 10.4 114.4 10.3C115.2 10.3 116.1 10.3 116.7 10.9C117.9 11.7 118.2 13.3001 118 14.6001C117.9 16.1001 116.9 17.7 115.3 17.9C117 20.1 118.6 22.3 120.4 24.5C121.3 25.5 122.1 26.6 123.4 27.2C124 27.5 124.6 27.4001 125.2 27.6001C124.9 27.7001 124.5 27.8 124.1 27.8C121.8 28.2 120.1 26.2001 118.8 24.6001C117.4 22.4001 115.7 20.5 114.3 18.4C114 18 113.6 17.6 113.2 17.3C114.1 17.2 115.2 17.3001 116 16.6001C116.9 15.8001 116.9 14.4 116.8 13.3C116.7 12.4 116.2 11.3 115.2 11C114.4 10.9 113.6 11 112.8 11C112.8 12.3 112.7 21.4 112.7 21.5C112.7 22.4 112.6 23.1 113.2 23.8C113.4 24.1 113.8 24.1 114.2 24.2C112.9 24.4 111.6 24.4 110.4 24.2C111.1 24.1 111.8 23.7 111.8 22.9C111.8 19.1 111.8 15.3 111.8 11.5C111.4 10.8 110.8 10.6 110.2 10.4Z" stroke="white" stroke-width="0.4286" stroke-miterlimit="22.9256"/>
<path d="M110.2 10.4C111.6 10.3 113 10.4 114.4 10.3C115.2 10.3 116.1 10.3 116.7 10.9C117.9 11.7 118.2 13.3001 118 14.6001C117.9 16.1001 116.9 17.7 115.3 17.9C117 20.1 118.6 22.3 120.4 24.5C121.3 25.5 122.1 26.6 123.4 27.2C124 27.5 124.6 27.4001 125.2 27.6001C124.9 27.7001 124.5 27.8 124.1 27.8C121.8 28.2 120.1 26.2001 118.8 24.6001C117.4 22.4001 115.7 20.5 114.3 18.4C114 18 113.6 17.6 113.2 17.3C114.1 17.2 115.2 17.3001 116 16.6001C116.9 15.8001 116.9 14.4 116.8 13.3C116.7 12.4 116.2 11.3 115.2 11C114.4 10.9 113.6 11 112.8 11C112.8 12.3 112.7 21.4 112.7 21.5C112.7 22.4 112.6 23.1 113.2 23.8C113.4 24.1 113.8 24.1 114.2 24.2C112.9 24.4 111.6 24.4 110.4 24.2C111.1 24.1 111.8 23.7 111.8 22.9C111.8 19.1 111.8 15.3 111.8 11.5C111.4 10.8 110.8 10.6 110.2 10.4Z" fill="white"/>
</svg>
