<svg width="586" height="271" viewBox="0 0 586 271" fill="none" xmlns="http://www.w3.org/2000/svg">
<path d="M127.191 61.7C129.791 61.7 132.991 59.4667 136.791 55C136.858 54.8667 137.058 54.7333 137.391 54.6L137.691 55V55.5C136.158 57.5667 134.124 59.5 131.591 61.3C129.124 63.0333 126.791 64.0667 124.591 64.4C121.724 64.6667 120.291 62.7333 120.291 58.6C120.291 55.6 121.124 51.9667 122.791 47.7C124.524 43.3667 126.624 39.3333 129.091 35.6L134.891 26.8L142.291 16.5C146.691 10.5 148.891 7.26666 148.891 6.8L148.491 6.4C148.024 6.4 146.291 8.03333 143.291 11.3C141.358 13.5 130.591 28.1667 110.991 55.3C108.858 58.3 107.024 60.5333 105.491 62C103.958 63.4 102.724 64.1 101.791 64.1C99.8577 64.1 98.891 62.3 98.891 58.7C98.891 52.2333 102.791 43.8333 110.591 33.5L125.591 13.9C125.991 13.4333 126.324 12.9333 126.591 12.4C126.658 12.2667 126.758 12.0333 126.891 11.7L126.591 11.5C125.058 11.5 122.524 13.7 118.991 18.1L98.491 43.7C87.491 57.3667 74.4243 64.2 59.291 64.2C55.7577 64.2 52.8243 63.1333 50.491 61C48.2243 58.8 46.8577 55.9 46.391 52.3C40.0577 49.9667 36.891 45.6667 36.891 39.4C36.891 32.7333 39.891 27.2333 45.891 22.9C49.3577 20.4333 53.491 18.8333 58.291 18.1C60.3577 17.8333 61.7577 17.7 62.491 17.7C63.2244 17.6333 63.791 17.6 64.191 17.6C64.591 17.6 65.0577 17.6333 65.591 17.7C66.1244 17.7 66.6244 17.7333 67.091 17.8C67.6244 17.8667 67.9244 17.9667 67.991 18.1C68.1244 18.2333 68.2244 18.3333 68.291 18.4C68.291 18.7333 68.0244 18.9667 67.491 19.1L64.291 18.9C55.691 18.9 48.891 21.4667 43.891 26.6C40.2243 30.2 38.391 34.4 38.391 39.2C38.391 39.9333 38.4577 40.9333 38.591 42.2C38.7243 43.4667 39.491 45.0333 40.891 46.9C42.3577 48.7 44.191 50 46.391 50.8L46.291 48.7C46.291 42.9667 48.5243 37.4333 52.991 32.1C57.0577 27.2333 61.9243 23.4667 67.591 20.8C71.991 18.8 76.4577 17.8 80.991 17.8C89.6577 17.8 93.991 20.8667 93.991 27C93.991 31.8 91.391 36.7667 86.191 41.9C82.5244 45.5667 77.9244 48.4667 72.391 50.6C66.9244 52.6667 61.4577 53.7 55.991 53.7C52.8577 53.7 50.191 53.3667 47.991 52.7C48.391 55.6333 49.6243 58.0333 51.691 59.9C53.7577 61.7667 56.2577 62.7 59.191 62.7C64.6577 62.7 69.7577 61.5667 74.491 59.3C80.891 56.1 88.091 50.1 96.091 41.3L116.991 18.3C122.858 11.8333 126.924 8.6 129.191 8.6C130.658 8.6 131.391 9.16666 131.391 10.3C131.391 11.1 131.158 12.2333 130.691 13.7C130.224 15.1 129.424 16.9667 128.291 19.3C126.491 22.9667 124.858 25.9333 123.391 28.2L109.691 48.9C106.158 54.4333 104.391 58 104.391 59.6C104.391 59.7333 104.424 59.8667 104.491 60C104.624 60.0667 104.724 60.1333 104.791 60.2C105.324 60.2 106.224 59.2667 107.491 57.4L138.791 14.8C143.524 8.4 146.991 5.2 149.191 5.2C150.524 5.2 151.424 5.83333 151.891 7.09999L152.091 7.99999C152.091 10.5333 150.258 14.9333 146.591 21.2L129.091 51.6C126.558 56.1333 125.291 58.9333 125.291 60C125.291 61.1333 125.924 61.7 127.191 61.7ZM48.891 42.6C48.5577 43.6 48.291 44.7 48.091 45.9C47.891 47.0333 47.791 48.2 47.791 49.4C47.791 50.2 47.8243 50.8 47.891 51.2C49.691 51.8667 52.2577 52.2 55.591 52.2C58.791 52.2 61.5577 51.9667 63.891 51.5C69.491 50.6333 74.891 48.4 80.091 44.8C86.291 40.6667 90.2244 35.9667 91.891 30.7C92.2244 29.3667 92.391 28.1667 92.391 27.1C92.391 21.8333 88.8577 19.2 81.791 19.2C80.791 19.2 79.8244 19.2 78.891 19.2C77.9577 19.4 77.2577 19.5333 76.791 19.6C70.791 20.4 65.1577 22.9667 59.891 27.3C54.6244 31.6333 50.9577 36.7333 48.891 42.6ZM144 61.7C145.866 61.7 148.266 60.6667 151.2 58.6C155.533 55.6667 160.1 51.1667 164.9 45.1L166.9 44.9C157.033 57.3667 148.833 63.6 142.3 63.6C138.5 63.6 136.6 61.3667 136.6 56.9C136.6 53.7 137.8 50.6 140.2 47.6C142.2 45 144.866 42.9333 148.2 41.4C150.333 40.3333 152.2 39.8 153.8 39.8C154.333 39.8 155.133 39.8667 156.2 40C157.266 40.1333 158 40.9667 158.4 42.5C158.6 43.1 158.7 43.6333 158.7 44.1C158.7 46.9667 156.133 49.3 151 51.1C150.466 51.3 149.433 51.5667 147.9 51.9C146.366 52.1667 145.333 52.3333 144.8 52.4C142.733 55.2667 141.7 57.7 141.7 59.7C141.7 61.0333 142.466 61.7 144 61.7ZM145.5 50.9C146.766 51.1667 148.866 50.4 151.8 48.6C154.733 46.8 156.2 44.8667 156.2 42.8C156.2 42.3333 156 42.0333 155.6 41.9C153.8 41.5667 151.7 42.7667 149.3 45.5C147.633 47.5 146.366 49.3 145.5 50.9ZM168.87 41.1C170.07 40.3 171.437 39.9 172.97 39.9C174.437 39.9 175.67 40.2667 176.67 41C177.737 41.6667 178.27 42.6 178.27 43.8C178.27 45.4667 176.27 48.8 172.27 53.8C169.47 57.4 168.07 59.7667 168.07 60.9C168.07 61.2333 168.203 61.5 168.47 61.7L169.07 61.9C170.937 61.9 174.337 59.5 179.27 54.7C182.87 51.1 185.803 47.7 188.07 44.5L190.07 44.3C188.003 46.9667 186.27 49.1 184.87 50.7C183.27 52.5667 181.437 54.4667 179.37 56.4C176.837 58.8667 174.537 60.7 172.47 61.9C170.403 63.0333 168.57 63.6 166.97 63.6C164.17 63.6 162.77 61.9667 162.77 58.7C162.77 55.9 164.803 52.1333 168.87 47.4C170.937 45.3333 171.97 43.7667 171.97 42.7C171.97 42.2333 171.77 42 171.37 42C170.97 42 170.103 42.5 168.77 43.5L166.37 45.9L164.47 45.4L165.37 44.4C164.837 44.5333 164.47 44.6 164.27 44.6C163.337 44.6 162.77 44.1333 162.57 43.2C162.303 42.1333 162.87 41.1 164.27 40.1C165.137 39.5 166.07 39.2667 167.07 39.4C168.27 39.4 168.87 39.9667 168.87 41.1ZM163.87 42.9C163.87 43.0333 164.103 43.1667 164.57 43.3C165.303 43.3 166.037 42.9667 166.77 42.3C167.237 41.9 167.47 41.5 167.47 41.1C167.47 40.7 167.237 40.5 166.77 40.5C166.103 40.5 165.437 40.8 164.77 41.4C164.037 41.9333 163.737 42.4333 163.87 42.9ZM191.624 41.1C192.824 40.3 194.19 39.9 195.724 39.9C197.19 39.9 198.424 40.2667 199.424 41C200.49 41.6667 201.024 42.6 201.024 43.8C201.024 45.4667 199.024 48.8 195.024 53.8C192.224 57.4 190.824 59.7667 190.824 60.9C190.824 61.2333 190.957 61.5 191.224 61.7L191.824 61.9C193.69 61.9 197.09 59.5 202.024 54.7C205.624 51.1 208.557 47.7 210.824 44.5L212.824 44.3C210.757 46.9667 209.024 49.1 207.624 50.7C206.024 52.5667 204.19 54.4667 202.124 56.4C199.59 58.8667 197.29 60.7 195.224 61.9C193.157 63.0333 191.324 63.6 189.724 63.6C186.924 63.6 185.524 61.9667 185.524 58.7C185.524 55.9 187.557 52.1333 191.624 47.4C193.69 45.3333 194.724 43.7667 194.724 42.7C194.724 42.2333 194.524 42 194.124 42C193.724 42 192.857 42.5 191.524 43.5L189.124 45.9L187.224 45.4L188.124 44.4C187.59 44.5333 187.224 44.6 187.024 44.6C186.09 44.6 185.524 44.1333 185.324 43.2C185.057 42.1333 185.624 41.1 187.024 40.1C187.89 39.5 188.824 39.2667 189.824 39.4C191.024 39.4 191.624 39.9667 191.624 41.1ZM186.624 42.9C186.624 43.0333 186.857 43.1667 187.324 43.3C188.057 43.3 188.79 42.9667 189.524 42.3C189.99 41.9 190.224 41.5 190.224 41.1C190.224 40.7 189.99 40.5 189.524 40.5C188.857 40.5 188.19 40.8 187.524 41.4C186.79 41.9333 186.49 42.4333 186.624 42.9ZM220.178 40.9L209.178 56.7C208.178 58.1 207.678 59.1333 207.678 59.8C207.678 60.4 207.978 60.7 208.578 60.7C209.644 60.7 211.844 59 215.178 55.6C216.978 53.7333 218.578 51.8667 219.978 50L227.078 40.9H233.678L221.578 58.9C224.311 57.9 230.311 53.2667 239.578 45L241.278 44.8C240.078 46.0667 238.744 47.3667 237.278 48.7C235.811 50.0333 234.111 51.4667 232.178 53C229.911 54.8 227.778 56.3667 225.778 57.7C223.778 59.0333 222.044 60.0333 220.578 60.7L213.978 70.3C211.044 74.5667 207.811 78.5667 204.278 82.3C199.011 87.7667 194.811 90.3333 191.678 90C190.411 90 189.611 89.3 189.278 87.9C189.211 87.6333 189.178 87.2333 189.178 86.7C189.178 83.2333 192.044 78.7667 197.778 73.3C203.044 68.2333 207.844 64.6667 212.178 62.6L216.878 55.6C214.344 58.2 212.478 59.9667 211.278 60.9C209.011 62.7667 207.144 63.5333 205.678 63.2C203.878 62.6667 202.978 61.4 202.978 59.4C202.978 55.4 206.378 49.2333 213.178 40.9H220.178ZM195.878 77.1C192.744 80.6333 190.911 83.7 190.378 86.3C190.378 87.9667 190.744 88.8333 191.478 88.9C193.678 89.2333 200.244 81.0667 211.178 64.4C206.511 66.8 201.411 71.0333 195.878 77.1ZM317.467 11.5L317.567 11.8C317.567 12.4 317.3 12.7 316.767 12.7L316.267 12.5C313.2 9.36666 308.433 6.8 301.967 4.79999C295.5 2.73333 289.8 1.7 284.867 1.7C282.667 1.7 280.567 1.9 278.567 2.3C272.367 3.43333 269.267 6.23333 269.267 10.7C269.267 12.5 269.833 14.3667 270.967 16.3C272.9 19.4333 276.9 22.5 282.967 25.5C285.567 26.7667 288.1 27.8333 290.567 28.7C293.033 29.5667 295.433 30.2333 297.767 30.7C300.3 27.5667 303.2 24.6333 306.467 21.9C309.8 19.1667 313.367 16.7667 317.167 14.7C325.433 10.1667 333.433 7.9 341.167 7.9C344.167 7.9 346.533 8.43333 348.267 9.5C349.8 10.3667 350.567 11.5667 350.567 13.1C350.567 13.7 350.4 14.5 350.067 15.5C348.333 19.7 343.933 23.5333 336.867 27C331.667 29.6 325.967 31.7 319.767 33.3C315.633 34.3 312.033 34.8 308.967 34.8C305.233 38.1333 302.067 43 299.467 49.4C299.4 49.7333 299.367 49.9333 299.367 50C299.367 50.0667 299.333 50.2 299.267 50.4L300.567 48.8C304.1 44.3333 308.2 40.7667 312.867 38.1C318 35.1 323.167 33.6 328.367 33.6C333.5 33.6 337.033 35.3 338.967 38.7C339.767 40.2333 340.167 41.8333 340.167 43.5C340.167 46.6333 338.933 49.9333 336.467 53.4C334.333 56.3333 331.767 58.9 328.767 61.1C324.3 64.2333 319.333 66.1667 313.867 66.9C309.933 71.8333 306 74.3 302.067 74.3C301.2 74.3 300.367 74.1667 299.567 73.9C295.7 72.8333 293.767 70.2 293.767 66C293.767 63.9333 294.133 62.2667 294.867 61C291.933 58.2667 290.467 54.5333 290.467 49.8C290.467 43.5333 292.567 37.6333 296.767 32.1C294.167 31.5667 291.633 30.8667 289.167 30C286.7 29.1333 284.167 28.0667 281.567 26.8C275.5 23.7333 271.267 20.2 268.867 16.2C268.067 14.6667 267.667 12.9667 267.667 11.1C267.667 5.56666 271.233 2.13333 278.367 0.799998C280.5 0.399999 282.633 0.2 284.767 0.2C290.367 0.2 296.167 1.13333 302.167 3C309.033 5.2 314.133 8.03333 317.467 11.5ZM345.767 18.8C347.633 16.7333 348.567 14.8333 348.567 13.1C348.567 10.9667 347.4 9.9 345.067 9.9C343.067 9.9 340.6 10.5667 337.667 11.9C334.8 13.1667 331.467 15.1667 327.667 17.9C320.867 22.8333 315.133 27.8667 310.467 33C315.2 33 321.233 31.6333 328.567 28.9C336.833 25.7 342.567 22.3333 345.767 18.8ZM338.167 45.7C338.3 45.3 338.4 44.8667 338.467 44.4C338.533 43.9333 338.567 43.5 338.567 43.1C338.567 40.5 337.467 38.5 335.267 37.1C333.533 35.8333 331.267 35.2 328.467 35.2C322.267 35.2 315.8 37.7667 309.067 42.9C303.8 46.9667 300.267 51.3333 298.467 56L298.267 57.5C298.267 58.9 298.867 60.3667 300.067 61.9C302.2 64.4333 305.167 65.7 308.967 65.7C310.367 65.7 311.567 65.5667 312.567 65.3C315.033 61.7 317.267 57.4333 319.267 52.5C319.467 51.9667 319.833 51.7 320.367 51.7C321.033 51.7 321.267 52.0333 321.067 52.7C320.4 54.7667 319.567 56.8 318.567 58.8C317.567 60.7333 316.267 62.8333 314.667 65.1C319.933 64.3 324.767 62.1333 329.167 58.6C333.633 55.0667 336.633 50.7667 338.167 45.7ZM302.067 72.5C305.467 72.5 308.567 70.7667 311.367 67.3L308.867 67.5C304 67.5 299.833 65.8333 296.367 62.5C295.767 63.4333 295.467 64.5333 295.467 65.8C295.467 67.8 296.033 69.4 297.167 70.6C298.367 71.8667 300 72.5 302.067 72.5ZM377.45 12.2L356.15 44.5C360.283 41.4333 363.383 39.9 365.45 39.9C366.516 39.9 367.45 40.3 368.25 41.1C369.05 41.9 369.45 42.8667 369.45 44C369.45 45.7333 367.716 48.7667 364.25 53.1C360.85 57.4333 359.15 59.9667 359.15 60.7C359.15 61.2333 359.416 61.5667 359.95 61.7C361.15 62.0333 363.483 60.8667 366.95 58.2C371.483 54.7333 375.783 50.3 379.85 44.9L381.85 44.7C380.583 46.5 379.016 48.4333 377.15 50.5C375.283 52.5667 373.383 54.5333 371.45 56.4C365.916 61.5333 361.683 63.9 358.75 63.5C356.416 63.1 355.25 61.6 355.25 59C355.25 56.6 356.283 54.0333 358.35 51.3C358.95 50.5 359.716 49.5333 360.65 48.4C361.65 47.2 362.55 46.1333 363.35 45.2C364.416 43.9333 364.95 42.9667 364.95 42.3C364.95 41.6333 364.55 41.3667 363.75 41.5C358.683 42.1667 352.183 49.3667 344.25 63.1H336.55L370.15 12.2H377.45ZM383.323 41.1C384.523 40.3 385.89 39.9 387.423 39.9C388.89 39.9 390.123 40.2667 391.123 41C392.19 41.6667 392.723 42.6 392.723 43.8C392.723 45.4667 390.723 48.8 386.723 53.8C383.923 57.4 382.523 59.7667 382.523 60.9C382.523 61.2333 382.656 61.5 382.923 61.7L383.523 61.9C385.39 61.9 388.79 59.5 393.723 54.7C397.323 51.1 400.256 47.7 402.523 44.5L404.523 44.3C402.456 46.9667 400.723 49.1 399.323 50.7C397.723 52.5667 395.89 54.4667 393.823 56.4C391.29 58.8667 388.99 60.7 386.923 61.9C384.856 63.0333 383.023 63.6 381.423 63.6C378.623 63.6 377.223 61.9667 377.223 58.7C377.223 55.9 379.256 52.1333 383.323 47.4C385.39 45.3333 386.423 43.7667 386.423 42.7C386.423 42.2333 386.223 42 385.823 42C385.423 42 384.556 42.5 383.223 43.5L380.823 45.9L378.923 45.4L379.823 44.4C379.29 44.5333 378.923 44.6 378.723 44.6C377.79 44.6 377.223 44.1333 377.023 43.2C376.756 42.1333 377.323 41.1 378.723 40.1C379.59 39.5 380.523 39.2667 381.523 39.4C382.723 39.4 383.323 39.9667 383.323 41.1ZM378.323 42.9C378.323 43.0333 378.556 43.1667 379.023 43.3C379.756 43.3 380.49 42.9667 381.223 42.3C381.69 41.9 381.923 41.5 381.923 41.1C381.923 40.7 381.69 40.5 381.223 40.5C380.556 40.5 379.89 40.8 379.223 41.4C378.49 41.9333 378.19 42.4333 378.323 42.9ZM412.577 29.6C413.11 29.4667 413.444 29.4 413.577 29.4C414.444 29.4 415.177 29.7667 415.777 30.5C416.444 31.1667 416.777 32 416.777 33C416.777 34.1333 416.344 35.1 415.477 35.9C414.61 36.7 413.61 37.1 412.477 37.1C412.077 37.1 411.61 37 411.077 36.8C410.01 36.3333 409.377 35.4667 409.177 34.2C408.777 31.8 409.91 30.2667 412.577 29.6ZM412.377 40.9C405.71 49.3 401.744 54.9 400.477 57.7C399.81 58.8333 399.477 59.7333 399.477 60.4C399.477 61 399.777 61.3667 400.377 61.5C402.244 61.9 405.644 59.7 410.577 54.9C413.977 51.5667 416.977 48.2667 419.577 45L421.477 44.8C411.544 57.3333 403.944 63.6 398.677 63.6C396.144 63.6 394.877 62.2333 394.877 59.5C394.877 56.5667 396.11 53.3667 398.577 49.9L404.877 40.9H412.377ZM428.253 38.2C428.253 39.2 427.619 40.2333 426.353 41.3C428.219 43.5667 429.153 46.3333 429.153 49.6C429.153 52.2 427.786 55.2667 425.053 58.8C427.253 57.8667 430.319 55.5667 434.253 51.9C437.586 48.7667 440.253 45.9667 442.253 43.5L444.153 43.1C438.353 50.1 432.953 55.2667 427.953 58.6C422.953 61.9333 418.319 63.6 414.053 63.6C412.053 63.6 410.619 62.8 409.753 61.2C409.553 60.6667 409.453 60.1333 409.453 59.6C409.453 58.5333 409.853 57.5333 410.653 56.6C411.453 55.6667 412.419 55.2 413.553 55.2C414.619 55.1333 415.419 55.3667 415.953 55.9C416.419 56.7667 416.519 57.4667 416.253 58C415.786 59.4667 414.153 60.3667 411.353 60.7L411.953 61.6L412.953 61.7C414.753 61.7 416.686 60.3667 418.753 57.7C420.553 55.5 421.786 53.3333 422.453 51.2C423.253 49.2667 423.653 47.5333 423.653 46L423.353 43.7L421.853 44.4L421.353 43.7C421.286 43.3667 421.619 42.7667 422.353 41.9L423.853 40C424.719 38.3333 425.519 37.4 426.253 37.2C427.319 36.8667 427.986 37.2 428.253 38.2ZM463.456 21.6L456.556 31.7H463.456V33.3H455.356L439.956 56.3C438.756 58.1 438.156 59.4 438.156 60.2C438.156 61.1333 438.656 61.6 439.656 61.6C441.589 61.6 444.589 59.5667 448.656 55.5C452.056 52.3667 455.323 48.7 458.456 44.5L460.356 44.3C458.889 46.3667 457.223 48.4333 455.356 50.5C453.556 52.5 451.656 54.4333 449.656 56.3C447.189 58.7 444.923 60.5333 442.856 61.8C440.789 63 439.123 63.6 437.856 63.6C435.389 63.6 434.156 62.1333 434.156 59.2C434.156 55.8667 436.556 50.5333 441.356 43.2L447.856 33.3H441.756V31.7H448.856L455.956 21.6H463.456ZM476.753 46.1C481.886 41.9667 485.286 39.9 486.953 39.9C489.753 39.9 491.153 41.2667 491.153 44C491.153 46.5333 488.886 50.4333 484.353 55.7C482.219 58.2333 481.153 59.9 481.153 60.7C481.153 61.4333 481.553 61.8 482.353 61.8C484.486 61.8 487.953 59.5 492.753 54.9C494.353 53.3667 495.986 51.7333 497.653 50C499.386 48.2 500.786 46.6 501.853 45.2L503.753 45C492.619 58.1333 484.653 64.3 479.853 63.5C478.386 63.2333 477.353 62.4 476.753 61L476.453 59.1C476.453 56.8333 477.419 54.4333 479.353 51.9L484.653 45.3C485.719 44.0333 486.253 43 486.253 42.2C486.253 41.7333 486.019 41.5 485.553 41.5C483.886 41.5 479.253 46.1667 471.653 55.5L465.553 63.1H458.353L470.453 45.3C471.586 43.5667 472.053 42.4333 471.853 41.9C471.719 41.5667 471.453 41.4333 471.053 41.5C470.653 41.5667 470.086 41.8667 469.353 42.4C468.619 42.9333 467.686 43.6333 466.553 44.5C465.486 45.3667 464.519 46.2 463.653 47C462.319 48.2 459.986 51.1667 456.653 55.9L451.653 63.1H444.653L459.353 40.9H466.253L463.953 45.2L468.153 41.9C470.086 40.5667 471.753 39.9 473.153 39.9C475.753 39.9 477.053 41.2667 477.053 44L476.753 46.1ZM517.579 42.6L518.979 40.9H527.079L515.079 58.6C514.346 59.6667 513.979 60.5 513.979 61.1C513.979 61.4333 514.179 61.6667 514.579 61.8C518.246 62.2667 525.046 56.5333 534.979 44.6L536.979 44.4L533.779 48.2C532.446 49.8667 530.979 51.5 529.379 53.1C528.113 54.3667 526.613 55.8 524.879 57.4C519.879 61.8 516.113 63.8333 513.579 63.5C511.113 63.1 509.879 61.6667 509.879 59.2L510.179 56.8C509.113 57.8667 508.146 58.8667 507.279 59.8C506.346 60.6667 505.679 61.2333 505.279 61.5C503.479 62.9 501.879 63.6 500.479 63.6C497.413 63.6 495.879 61.5333 495.879 57.4C495.879 53.1333 497.546 49.2333 500.879 45.7C504.679 41.8333 508.813 39.9 513.279 39.9C515.146 39.9 516.579 40.8 517.579 42.6ZM500.979 60.3C500.979 61.1 501.313 61.5 501.979 61.5C503.913 61.5 506.946 58.8 511.079 53.4C511.813 52.6 512.979 50.8 514.579 48C515.379 46.7333 515.879 45.3667 516.079 43.9C516.279 42.7667 515.979 42.1333 515.179 42C512.713 41.5333 509.746 43.8 506.279 48.8C502.746 53.8 500.979 57.6333 500.979 60.3ZM542.706 38.2C542.706 39.2 542.073 40.2333 540.806 41.3C542.673 43.5667 543.606 46.3333 543.606 49.6C543.606 52.2 542.239 55.2667 539.506 58.8C541.706 57.8667 544.773 55.5667 548.706 51.9C552.039 48.7667 554.706 45.9667 556.706 43.5L558.606 43.1C552.806 50.1 547.406 55.2667 542.406 58.6C537.406 61.9333 532.773 63.6 528.506 63.6C526.506 63.6 525.073 62.8 524.206 61.2C524.006 60.6667 523.906 60.1333 523.906 59.6C523.906 58.5333 524.306 57.5333 525.106 56.6C525.906 55.6667 526.873 55.2 528.006 55.2C529.073 55.1333 529.873 55.3667 530.406 55.9C530.873 56.7667 530.973 57.4667 530.706 58C530.239 59.4667 528.606 60.3667 525.806 60.7L526.406 61.6L527.406 61.7C529.206 61.7 531.139 60.3667 533.206 57.7C535.006 55.5 536.239 53.3333 536.906 51.2C537.706 49.2667 538.106 47.5333 538.106 46L537.806 43.7L536.306 44.4L535.806 43.7C535.739 43.3667 536.073 42.7667 536.806 41.9L538.306 40C539.173 38.3333 539.973 37.4 540.706 37.2C541.773 36.8667 542.439 37.2 542.706 38.2ZM259.474 132.6L260.874 130.9H268.974L256.974 148.6C256.24 149.667 255.874 150.5 255.874 151.1C255.874 151.433 256.074 151.667 256.474 151.8C260.14 152.267 266.94 146.533 276.874 134.6L278.874 134.4L275.674 138.2C274.34 139.867 272.874 141.5 271.274 143.1C270.007 144.367 268.507 145.8 266.774 147.4C261.774 151.8 258.007 153.833 255.474 153.5C253.007 153.1 251.774 151.667 251.774 149.2L252.074 146.8C251.007 147.867 250.04 148.867 249.174 149.8C248.24 150.667 247.574 151.233 247.174 151.5C245.374 152.9 243.774 153.6 242.374 153.6C239.307 153.6 237.774 151.533 237.774 147.4C237.774 143.133 239.44 139.233 242.774 135.7C246.574 131.833 250.707 129.9 255.174 129.9C257.04 129.9 258.474 130.8 259.474 132.6ZM242.874 150.3C242.874 151.1 243.207 151.5 243.874 151.5C245.807 151.5 248.84 148.8 252.974 143.4C253.707 142.6 254.874 140.8 256.474 138C257.274 136.733 257.774 135.367 257.974 133.9C258.174 132.767 257.874 132.133 257.074 132C254.607 131.533 251.64 133.8 248.174 138.8C244.64 143.8 242.874 147.633 242.874 150.3ZM288.1 151.7C289.967 151.7 293.334 149.333 298.2 144.6C301.867 140.933 304.767 137.667 306.9 134.8L308.9 134.6L305.6 138.6C296.667 149.333 290.1 154.3 285.9 153.5C283.767 152.967 282.7 151.433 282.7 148.9C282.7 146.367 283.7 143.733 285.7 141L289.4 136.8C291.867 134.2 293.067 132.667 293 132.2C293 131.667 292.6 131.4 291.8 131.4C288.8 131.4 284.234 135.7 278.1 144.3C278.034 144.367 277.667 144.9 277 145.9C274.734 149.367 273.167 151.767 272.3 153.1H265.6L279.1 130.9H286.1L284.2 134.9C288.734 131.167 291.967 129.533 293.9 130C295.834 130.4 296.8 131.8 296.8 134.2C296.8 136.6 294.5 140.667 289.9 146.4C288.1 148.733 287.2 150.3 287.2 151.1C287.467 151.5 287.767 151.7 288.1 151.7ZM348.683 102.2L319.483 145.9C318.15 147.967 317.483 149.5 317.483 150.5C317.483 151.5 317.983 152 318.983 152C322.183 152 328.55 146.4 338.083 135.2L339.983 135.1L329.383 146.6C324.05 151.733 320.017 154.033 317.283 153.5C315.817 153.233 314.783 152.233 314.183 150.5C314.117 150.233 314.05 149.633 313.983 148.7C313.917 147.767 313.883 147.233 313.883 147.1C311.217 149.767 309.65 151.267 309.183 151.6C307.45 152.933 305.883 153.6 304.483 153.6C301.217 153.6 299.583 151.467 299.583 147.2C299.583 143.467 301.083 139.833 304.083 136.3C307.55 132.033 311.55 129.9 316.083 129.9C318.683 129.9 320.283 131 320.883 133.2L341.283 102.2H348.683ZM305.083 150.4C305.15 151.067 305.617 151.4 306.483 151.4C308.95 151.4 312.45 147.433 316.983 139.5C318.583 136.567 319.383 134.5 319.383 133.3C319.383 132.7 319.183 132.333 318.783 132.2C316.983 131.667 314.117 134.033 310.183 139.3C306.25 144.567 304.55 148.267 305.083 150.4ZM53.0172 229.6H59.7172C65.7839 218.867 72.3172 209.567 79.3172 201.7C80.6505 200.167 81.9172 199.4 83.1172 199.4H85.7172C86.3172 199.4 86.6172 199.6 86.6172 200C86.5505 200.267 86.4839 200.467 86.4172 200.6C86.4172 200.733 86.2505 201.033 85.9172 201.5L62.3172 239.9C61.4505 241.367 61.0172 242.4 61.0172 243C61.0172 243.533 61.4172 243.8 62.2172 243.8C64.3505 243.8 66.6839 242.767 69.2172 240.7C71.4839 238.967 73.2839 237.133 74.6172 235.2C74.6839 234.933 74.8839 234.867 75.2172 235C75.5505 235.133 75.6172 235.4 75.4172 235.8C73.8172 238.267 71.6172 240.467 68.8172 242.4C66.0172 244.267 63.2505 245.2 60.5172 245.2C58.0505 245.2 56.8172 243.5 56.8172 240.1C56.8172 237.433 57.6172 234.4 59.2172 231H51.9172C46.5839 236.133 41.5505 239.967 36.8172 242.5C32.4172 244.833 28.2172 246 24.2172 246C21.9505 246 20.4505 245.3 19.7172 243.9C19.5172 243.567 19.4172 243.2 19.4172 242.8C19.4172 242.4 19.5172 241.9 19.7172 241.3C20.3172 239.5 21.6839 238.433 23.8172 238.1C24.2172 238.033 24.4505 238.233 24.5172 238.7C24.6505 239.167 24.1839 239.5 23.1172 239.7C22.0505 239.9 21.4172 240.7 21.2172 242.1C20.8839 243.7 21.7839 244.5 23.9172 244.5C26.3839 244.5 29.5839 242.833 33.5172 239.5C36.3839 237.1 39.0172 234.367 41.4172 231.3H35.6172C35.0172 231.3 34.7172 231.1 34.7172 230.7C34.7172 230.233 35.0172 230 35.6172 230H42.4172L45.3172 226.1C48.4505 221.633 51.2505 216.8 53.7172 211.6C57.3839 204.333 59.2172 198.6 59.2172 194.4C59.2172 191.133 57.5505 188.333 54.2172 186C51.8839 184.467 49.4505 183.567 46.9172 183.3C50.7839 186.3 52.7172 190.733 52.7172 196.6C52.7172 199.267 52.2839 201.8 51.4172 204.2C49.6172 209.533 46.5839 214.267 42.3172 218.4C38.1172 222.533 33.3505 225.4 28.0172 227C26.6172 227.467 25.0172 227.7 23.2172 227.7C19.4839 227.7 16.4505 226.733 14.1172 224.8C12.4505 223.4 11.2172 221.6 10.4172 219.4C9.68385 217.2 9.31719 214.6 9.31719 211.6C9.31719 209.267 9.75052 206.933 10.6172 204.6C11.5505 202.2 12.8839 199.733 14.6172 197.2C17.6839 192.8 21.4505 189.267 25.9172 186.6C28.3839 185.2 30.7172 184.1 32.9172 183.3C35.1839 182.5 37.5172 181.967 39.9172 181.7C37.3172 180.767 34.4839 180.3 31.4172 180.3C23.5505 180.3 16.8839 182.667 11.4172 187.4C8.81719 189.6 6.68385 192.4 5.01719 195.8C3.41719 199.133 2.61719 202.233 2.61719 205.1C2.68385 205.633 2.71719 206.033 2.71719 206.3C2.45052 206.633 2.18385 206.8 1.91719 206.8C1.38385 206.933 1.08385 206.8 1.01719 206.4C0.950521 205.733 0.917187 205.2 0.917187 204.8C0.917187 201.933 1.75052 198.767 3.41719 195.3C5.01719 191.833 7.21719 188.9 10.0172 186.5C16.2172 181.3 23.2172 178.7 31.0172 178.7C35.4172 178.7 39.6839 179.6 43.8172 181.4C46.4172 181.4 48.9172 181.833 51.3172 182.7C53.7172 183.5 55.9505 184.633 58.0172 186.1C62.5505 189.433 64.8172 193.7 64.8172 198.9C64.8172 203.5 63.4505 209.1 60.7172 215.7C59.5172 218.567 58.3172 221.1 57.1172 223.3C55.9172 225.5 54.5505 227.6 53.0172 229.6ZM11.7172 207.7C11.1172 209.7 10.8172 211.6 10.8172 213.4C10.8172 217.2 11.9172 220.3 14.1172 222.7C16.3172 225.1 19.3172 226.3 23.1172 226.3C28.3839 226.3 33.7172 224 39.1172 219.4C43.5172 215.6 46.8505 211.067 49.1172 205.8C50.3172 203 50.9172 199.8 50.9172 196.2C50.9172 189.6 48.0172 185.033 42.2172 182.5C34.7505 183.367 28.3172 186 22.9172 190.4C17.5172 194.8 13.7839 200.567 11.7172 207.7ZM96.3391 222.6L97.7391 220.9H105.839L93.8391 238.6C93.1057 239.667 92.7391 240.5 92.7391 241.1C92.7391 241.433 92.9391 241.667 93.3391 241.8C97.0057 242.267 103.806 236.533 113.739 224.6L115.739 224.4L112.539 228.2C111.206 229.867 109.739 231.5 108.139 233.1C106.872 234.367 105.372 235.8 103.639 237.4C98.6391 241.8 94.8724 243.833 92.3391 243.5C89.8724 243.1 88.6391 241.667 88.6391 239.2L88.9391 236.8C87.8724 237.867 86.9057 238.867 86.0391 239.8C85.1057 240.667 84.4391 241.233 84.0391 241.5C82.2391 242.9 80.6391 243.6 79.2391 243.6C76.1724 243.6 74.6391 241.533 74.6391 237.4C74.6391 233.133 76.3057 229.233 79.6391 225.7C83.4391 221.833 87.5724 219.9 92.0391 219.9C93.9057 219.9 95.3391 220.8 96.3391 222.6ZM79.7391 240.3C79.7391 241.1 80.0724 241.5 80.7391 241.5C82.6724 241.5 85.7057 238.8 89.8391 233.4C90.5724 232.6 91.7391 230.8 93.3391 228C94.1391 226.733 94.6391 225.367 94.8391 223.9C95.0391 222.767 94.7391 222.133 93.9391 222C91.4724 221.533 88.5057 223.8 85.0391 228.8C81.5057 233.8 79.7391 237.633 79.7391 240.3ZM109.266 240.6L90.4656 269.5H83.1656L115.366 220.9H122.166L120.966 222.9C123.499 220.9 125.699 219.9 127.566 219.9C130.566 219.9 132.066 221.833 132.066 225.7C132.066 230.167 129.932 234.3 125.666 238.1C124.599 239.033 123.566 239.867 122.566 240.6C127.766 237.733 133.099 233.4 138.566 227.6L140.666 227.2C131.266 237.6 123.432 242.967 117.166 243.3L118.266 242.8C116.466 243.333 114.599 243.6 112.666 243.6C110.732 243.6 109.599 242.6 109.266 240.6ZM123.166 222.5C121.032 224.367 118.666 227 116.066 230.4C112.666 234.733 110.966 237.667 110.966 239.2C110.832 240.133 110.932 240.767 111.266 241.1C111.599 241.367 111.999 241.5 112.466 241.5C113.066 241.5 113.566 241.333 113.966 241C116.632 239.667 119.466 237.2 122.466 233.6C125.732 229.733 127.366 226.433 127.366 223.7C127.366 222.167 126.899 221.4 125.966 221.4C125.032 221.4 124.099 221.767 123.166 222.5ZM137.488 240.6L118.688 269.5H111.388L143.588 220.9H150.388L149.188 222.9C151.722 220.9 153.922 219.9 155.788 219.9C158.788 219.9 160.288 221.833 160.288 225.7C160.288 230.167 158.155 234.3 153.888 238.1C152.822 239.033 151.788 239.867 150.788 240.6C155.988 237.733 161.322 233.4 166.788 227.6L168.888 227.2C159.488 237.6 151.655 242.967 145.388 243.3L146.488 242.8C144.688 243.333 142.822 243.6 140.888 243.6C138.955 243.6 137.822 242.6 137.488 240.6ZM151.388 222.5C149.255 224.367 146.888 227 144.288 230.4C140.888 234.733 139.188 237.667 139.188 239.2C139.055 240.133 139.155 240.767 139.488 241.1C139.822 241.367 140.222 241.5 140.688 241.5C141.288 241.5 141.788 241.333 142.188 241C144.855 239.667 147.688 237.2 150.688 233.6C153.955 229.733 155.588 226.433 155.588 223.7C155.588 222.167 155.122 221.4 154.188 221.4C153.255 221.4 152.322 221.767 151.388 222.5ZM179.211 220.9L168.211 236.7C167.211 238.1 166.711 239.133 166.711 239.8C166.711 240.4 167.011 240.7 167.611 240.7C168.678 240.7 170.878 239 174.211 235.6C176.011 233.733 177.611 231.867 179.011 230L186.111 220.9H192.711L180.611 238.9C183.344 237.9 189.344 233.267 198.611 225L200.311 224.8C199.111 226.067 197.778 227.367 196.311 228.7C194.844 230.033 193.144 231.467 191.211 233C188.944 234.8 186.811 236.367 184.811 237.7C182.811 239.033 181.078 240.033 179.611 240.7L173.011 250.3C170.078 254.567 166.844 258.567 163.311 262.3C158.044 267.767 153.844 270.333 150.711 270C149.444 270 148.644 269.3 148.311 267.9C148.244 267.633 148.211 267.233 148.211 266.7C148.211 263.233 151.078 258.767 156.811 253.3C162.078 248.233 166.878 244.667 171.211 242.6L175.911 235.6C173.378 238.2 171.511 239.967 170.311 240.9C168.044 242.767 166.178 243.533 164.711 243.2C162.911 242.667 162.011 241.4 162.011 239.4C162.011 235.4 165.411 229.233 172.211 220.9H179.211ZM154.911 257.1C151.778 260.633 149.944 263.7 149.411 266.3C149.411 267.967 149.778 268.833 150.511 268.9C152.711 269.233 159.278 261.067 170.211 244.4C165.544 246.8 160.444 251.033 154.911 257.1ZM356.5 190.3C356.5 188.3 355.533 187.3 353.6 187.3C349.267 187.3 341.233 194.8 329.5 209.8L324.1 216.8C331.1 214.867 338.1 211.267 345.1 206C352.7 200.2 356.5 194.967 356.5 190.3ZM234.2 230.3C236.467 230.967 239.233 231.3 242.5 231.3C252.167 231.3 260.767 228.4 268.3 222.6C275.367 217.333 278.9 211.8 278.9 206C278.9 200.867 275.067 198.3 267.4 198.3C259.333 198.3 251.767 201.267 244.7 207.2C237.633 213.067 234.1 220 234.1 228L234.2 230.3ZM244.9 201.6C239.233 201.6 234.533 202.667 230.8 204.8C226.067 207.533 223.7 211.5 223.7 216.7C223.7 219.567 224.5 222.2 226.1 224.6C227.767 226.933 229.933 228.6 232.6 229.6C232.6 225.2 233.467 221.067 235.2 217.2C236.933 213.267 239.633 209.667 243.3 206.4C250.633 200 258.7 196.8 267.5 196.8C276.1 196.8 280.4 200.067 280.4 206.6C280.4 210.467 278.333 214.633 274.2 219.1C270.667 222.833 266.833 225.733 262.7 227.8C256.367 231 249.4 232.6 241.8 232.6C239.467 232.6 237 232.3 234.4 231.7C235.133 236.233 237.1 239.767 240.3 242.3C243.5 244.833 247.467 246.1 252.2 246.1C258.6 246.1 265.6 243.6 273.2 238.6C276.333 236.467 279.267 234.2 282 231.8C284.8 229.333 287.5 226.533 290.1 223.4C294.7 218 298.7 213.167 302.1 208.9C305.567 204.633 308.933 200.333 312.2 196L315 191.8C316.533 190 317.733 189.1 318.6 189.1C319.733 189.1 320.533 189.8 321 191.2C321.467 192.6 321.7 193.933 321.7 195.2C321.7 199.533 320.267 204.8 317.4 211C308.067 231.2 303.633 241.433 304.1 241.7C304.5 241.167 304.867 240.7 305.2 240.3C307.467 237.433 309.667 234.533 311.8 231.6C316 225.8 318.933 221.6 320.6 219C318.667 219.4 317.067 219.6 315.8 219.6C315.267 219.6 314.8 219.533 314.4 219.4C314.067 219.267 313.967 219.033 314.1 218.7C314.233 218.3 314.567 218.1 315.1 218.1C315.767 218.167 318 217.933 321.8 217.4C328.4 208.667 333.133 202.667 336 199.4C343.933 190.4 349.833 185.9 353.7 185.9C356.5 185.9 357.9 187.4 357.9 190.4C357.9 196.333 353.4 202.367 344.4 208.5C337.333 213.3 330.133 216.7 322.8 218.7C322 220.1 317.033 226.967 307.9 239.3C304.5 243.833 302.2 246.1 301 246.1C299.333 246.1 298.5 244.133 298.5 240.2C298.5 233.4 300.567 225.933 304.7 217.8L315.4 196.7C316.333 194.7 316.8 193.533 316.8 193.2L316.6 192.8C316.2 192.733 315.667 193.167 315 194.1L311.7 199.4C309.5 202.733 306.667 206.767 303.2 211.5C299.733 216.167 295.7 221.433 291.1 227.3C279.967 241.3 268.1 248.3 255.5 248.3C242.1 248.3 234.5 242.6 232.7 231.2C225.7 228.4 222.2 223.533 222.2 216.6C222.2 211.133 224.667 206.9 229.6 203.9C233.8 201.5 238.833 200.3 244.7 200.3C245.233 200.3 245.5 200.5 245.5 200.9C245.567 201.367 245.367 201.6 244.9 201.6ZM329.595 241.7C331.462 241.7 333.862 240.667 336.795 238.6C341.129 235.667 345.695 231.167 350.495 225.1L352.495 224.9C342.629 237.367 334.429 243.6 327.895 243.6C324.095 243.6 322.195 241.367 322.195 236.9C322.195 233.7 323.395 230.6 325.795 227.6C327.795 225 330.462 222.933 333.795 221.4C335.929 220.333 337.795 219.8 339.395 219.8C339.929 219.8 340.729 219.867 341.795 220C342.862 220.133 343.595 220.967 343.995 222.5C344.195 223.1 344.295 223.633 344.295 224.1C344.295 226.967 341.729 229.3 336.595 231.1C336.062 231.3 335.029 231.567 333.495 231.9C331.962 232.167 330.929 232.333 330.395 232.4C328.329 235.267 327.295 237.7 327.295 239.7C327.295 241.033 328.062 241.7 329.595 241.7ZM331.095 230.9C332.362 231.167 334.462 230.4 337.395 228.6C340.329 226.8 341.795 224.867 341.795 222.8C341.795 222.333 341.595 222.033 341.195 221.9C339.395 221.567 337.295 222.767 334.895 225.5C333.229 227.5 331.962 229.3 331.095 230.9ZM381.666 222C381.666 223.6 380.499 225.867 378.166 228.8L379.466 229C382.066 229 384.732 227.5 387.466 224.5L389.066 224.4C386.132 228.333 382.966 230.3 379.566 230.3L377.366 230C373.432 234.6 370.132 238.033 367.466 240.3C364.866 242.5 362.866 243.6 361.466 243.6C358.866 243.6 357.566 242.133 357.566 239.2C357.566 238.133 357.766 236.9 358.166 235.5L353.266 239.9C351.799 241.1 350.499 242.033 349.366 242.7C348.166 243.3 347.232 243.6 346.566 243.6C344.766 243.4 343.866 242 343.866 239.4C343.866 236.2 346.932 230.033 353.066 220.9H360.466L349.266 237.4C348.399 238.667 347.966 239.6 347.966 240.2C347.966 240.6 348.166 240.867 348.566 241C349.232 241.267 350.799 240.367 353.266 238.3C356.066 235.9 358.566 233.033 360.766 229.7L366.366 220.9H373.766L364.466 235.4C362.999 237.667 362.266 239.233 362.266 240.1C362.266 240.9 362.632 241.3 363.366 241.3C364.232 241.3 365.532 240.533 367.266 239L371.866 234.3C374.599 231.367 375.999 229.7 376.066 229.3C375.466 228.567 375.166 227.667 375.166 226.6C375.166 225 375.799 223.367 377.066 221.7C377.866 220.633 378.832 220.1 379.966 220.1C381.099 220.1 381.666 220.733 381.666 222ZM376.966 227.8C377.499 227.933 378.199 227.167 379.066 225.5C379.999 223.767 380.466 222.6 380.466 222C380.466 221.6 380.332 221.367 380.066 221.3C379.266 221.033 378.432 221.733 377.566 223.4C376.966 224.8 376.666 225.967 376.666 226.9C376.666 227.3 376.699 227.567 376.766 227.7C376.832 227.767 376.899 227.8 376.966 227.8ZM464.272 242C466.405 242.6 470.205 240.067 475.672 234.4L487.772 221.5C489.305 219.767 490.705 218.1 491.972 216.5C493.305 214.833 495.239 212.267 497.772 208.8C499.439 206.533 500.639 205.267 501.372 205C502.172 204.667 504.072 204.5 507.072 204.5C507.872 204.5 508.272 204.7 508.272 205.1L507.072 207.2L488.072 238.3C483.805 245.167 478.605 251.3 472.472 256.7C469.072 259.7 465.805 261.933 462.672 263.4C459.539 264.867 456.605 265.6 453.872 265.6C451.339 265.6 449.505 264.533 448.372 262.4C447.972 261.6 447.772 260.767 447.772 259.9C447.772 258.9 448.005 257.933 448.472 257C449.539 255.067 450.972 254.1 452.772 254.1C454.505 254.1 455.605 254.733 456.072 256L456.372 257.6C456.372 259.133 455.472 260.267 453.672 261C453.272 261.133 452.905 261.2 452.572 261.2C451.905 261.2 450.972 261.033 449.772 260.7C449.639 260.7 449.505 260.833 449.372 261.1C449.372 262.167 449.939 262.967 451.072 263.5C452.272 264.1 453.539 264.4 454.872 264.4C460.672 264.4 466.372 259.7 471.972 250.3L488.372 223.1C484.572 227.233 481.405 230.6 478.872 233.2C476.405 235.8 474.805 237.433 474.072 238.1C470.205 241.767 467.072 243.6 464.672 243.6C462.005 243.6 460.172 242.167 459.172 239.3C458.905 238.433 458.772 237.433 458.772 236.3C458.772 231.967 462.072 225.233 468.672 216.1L472.172 211.4C476.372 205.667 478.472 201.267 478.472 198.2C478.472 196.8 478.172 195.433 477.572 194.1C475.972 190.633 473.205 188.5 469.272 187.7C471.205 189.5 472.172 192.1 472.172 195.5C472.172 200.5 470.339 205.867 466.672 211.6C463.672 216.6 459.872 220.967 455.272 224.7C449.405 229.567 443.472 232 437.472 232C429.805 232 425.972 227.8 425.972 219.4L426.072 217.5C424.605 215.433 423.872 212.767 423.872 209.5C423.872 205.167 425.072 201.133 427.472 197.4C432.405 189.933 439.439 185.267 448.572 183.4C450.905 182.933 453.239 182.7 455.572 182.7C460.372 182.7 464.439 183.767 467.772 185.9C475.172 187.167 479.872 191.467 481.872 198.8C482.339 200.4 482.572 201.967 482.572 203.5C482.572 206.7 481.639 210.133 479.772 213.8C478.905 215.6 477.939 217.367 476.872 219.1C475.872 220.767 474.472 222.867 472.672 225.4L465.072 236.5C463.805 238.367 463.172 239.633 463.172 240.3C463.039 241.233 463.405 241.8 464.272 242ZM456.872 184C454.139 184 451.539 184.233 449.072 184.7C446.605 185.1 444.205 185.8 441.872 186.8C436.805 189 432.772 192.2 429.772 196.4C426.839 200.533 425.372 204.8 425.372 209.2C425.372 211.267 425.739 213.2 426.472 215C427.672 209.667 430.339 204.667 434.472 200C438.339 195.733 442.939 192.367 448.272 189.9C450.339 188.967 452.105 188.267 453.572 187.8C455.105 187.267 456.572 186.9 457.972 186.7L464.872 185.8C463.339 185.2 461.905 184.767 460.572 184.5C459.305 184.167 458.072 184 456.872 184ZM428.372 225.2C430.039 228.867 433.105 230.7 437.572 230.7C444.239 230.7 451.005 227.333 457.872 220.6C460.872 217.733 463.639 214 466.172 209.4C469.172 204.067 470.672 199.467 470.672 195.6C470.672 192.2 469.572 189.5 467.372 187.5L464.172 187.2C458.105 187.2 451.905 189.033 445.572 192.7C435.305 198.567 429.372 206.667 427.772 217C428.705 218.4 430.072 219.467 431.872 220.2C432.139 220.267 432.172 220.533 431.972 221C431.705 221.4 431.439 221.567 431.172 221.5C429.905 220.967 428.672 220.133 427.472 219C427.472 220.667 427.505 221.9 427.572 222.7C427.705 223.433 427.972 224.267 428.372 225.2ZM507.232 241.7C509.099 241.7 511.499 240.667 514.432 238.6C518.765 235.667 523.332 231.167 528.132 225.1L530.132 224.9C520.265 237.367 512.065 243.6 505.532 243.6C501.732 243.6 499.832 241.367 499.832 236.9C499.832 233.7 501.032 230.6 503.432 227.6C505.432 225 508.099 222.933 511.432 221.4C513.565 220.333 515.432 219.8 517.032 219.8C517.565 219.8 518.365 219.867 519.432 220C520.499 220.133 521.232 220.967 521.632 222.5C521.832 223.1 521.932 223.633 521.932 224.1C521.932 226.967 519.365 229.3 514.232 231.1C513.699 231.3 512.665 231.567 511.132 231.9C509.599 232.167 508.565 232.333 508.032 232.4C505.965 235.267 504.932 237.7 504.932 239.7C504.932 241.033 505.699 241.7 507.232 241.7ZM508.732 230.9C509.999 231.167 512.099 230.4 515.032 228.6C517.965 226.8 519.432 224.867 519.432 222.8C519.432 222.333 519.232 222.033 518.832 221.9C517.032 221.567 514.932 222.767 512.532 225.5C510.865 227.5 509.599 229.3 508.732 230.9ZM543.702 222.6L545.102 220.9H553.202L541.202 238.6C540.469 239.667 540.102 240.5 540.102 241.1C540.102 241.433 540.302 241.667 540.702 241.8C544.369 242.267 551.169 236.533 561.102 224.6L563.102 224.4L559.902 228.2C558.569 229.867 557.102 231.5 555.502 233.1C554.236 234.367 552.736 235.8 551.002 237.4C546.002 241.8 542.236 243.833 539.702 243.5C537.236 243.1 536.002 241.667 536.002 239.2L536.302 236.8C535.236 237.867 534.269 238.867 533.402 239.8C532.469 240.667 531.802 241.233 531.402 241.5C529.602 242.9 528.002 243.6 526.602 243.6C523.536 243.6 522.002 241.533 522.002 237.4C522.002 233.133 523.669 229.233 527.002 225.7C530.802 221.833 534.936 219.9 539.402 219.9C541.269 219.9 542.702 220.8 543.702 222.6ZM527.102 240.3C527.102 241.1 527.436 241.5 528.102 241.5C530.036 241.5 533.069 238.8 537.202 233.4C537.936 232.6 539.102 230.8 540.702 228C541.502 226.733 542.002 225.367 542.202 223.9C542.402 222.767 542.102 222.133 541.302 222C538.836 221.533 535.869 223.8 532.402 228.8C528.869 233.8 527.102 237.633 527.102 240.3ZM564.329 221.1C565.529 220.3 566.896 219.9 568.429 219.9C569.896 219.9 571.129 220.267 572.129 221C573.196 221.667 573.729 222.6 573.729 223.8C573.729 225.467 571.729 228.8 567.729 233.8C564.929 237.4 563.529 239.767 563.529 240.9C563.529 241.233 563.662 241.5 563.929 241.7L564.529 241.9C566.396 241.9 569.796 239.5 574.729 234.7C578.329 231.1 581.262 227.7 583.529 224.5L585.529 224.3C583.462 226.967 581.729 229.1 580.329 230.7C578.729 232.567 576.896 234.467 574.829 236.4C572.296 238.867 569.996 240.7 567.929 241.9C565.862 243.033 564.029 243.6 562.429 243.6C559.629 243.6 558.229 241.967 558.229 238.7C558.229 235.9 560.262 232.133 564.329 227.4C566.396 225.333 567.429 223.767 567.429 222.7C567.429 222.233 567.229 222 566.829 222C566.429 222 565.562 222.5 564.229 223.5L561.829 225.9L559.929 225.4L560.829 224.4C560.296 224.533 559.929 224.6 559.729 224.6C558.796 224.6 558.229 224.133 558.029 223.2C557.762 222.133 558.329 221.1 559.729 220.1C560.596 219.5 561.529 219.267 562.529 219.4C563.729 219.4 564.329 219.967 564.329 221.1ZM559.329 222.9C559.329 223.033 559.562 223.167 560.029 223.3C560.762 223.3 561.496 222.967 562.229 222.3C562.696 221.9 562.929 221.5 562.929 221.1C562.929 220.7 562.696 220.5 562.229 220.5C561.562 220.5 560.896 220.8 560.229 221.4C559.496 221.933 559.196 222.433 559.329 222.9Z" fill="#FEFEFB"/>
</svg>
