<svg width="160" height="78" viewBox="0 0 86 42" fill="none" xmlns="http://www.w3.org/2000/svg">
<path d="M69.4 16.2C70.1 16.1 70.8 16.2 71.4 16.5C71.9 16.8 72.2 17.4 72.2 18C72.2 18.9 71.8 19.8 71.1 20.4C70.5 20.9 69.6 21.1 68.9 21C68.2 21 67.5 20.5 67.3 19.9C67 19.2 67.1 18.5 67.4 17.8C67.7 17 68.5 16.4 69.4 16.2Z" fill="white"/>
<path d="M80.3 15C81.5 14.7 82.8 15 83.8 15.7C84.6 16.3 85.1 17.2 85.3 18.2C85.5 19.8 85.1 21.5 84.4 22.9C83.4 24.9 81.7 26.4 79.7 27.4C78.8 27.8 77.9 28.1 77 28.4C76.8 29.5 76.6 30.6 77 31.7C77.2 32.3 77.8 32.7 78.5 32.8C80 33 81.5001 32.4 82.6001 31.4C83.3001 30.7 83.8 29.9 84.3 29.1C84.7 29.2 85.1 29.4 85.4 29.7C85.5 29.9 85.4 30.1 85.3 30.3C84.4 31.9 83.3 33.5 81.8 34.5C80.2 35.5 78.2 35.7 76.3 35.3C75.3 35.1 74.3 34.5 73.7 33.6C73.3 33 73 32.3 73 31.6C72.6 32.3 72.1 32.9 71.5 33.4C70.3 34.6 68.6 35.5 66.8 35.5C66 35.5 65 35.4 64.4 34.9C63.8 34.4 63.6 33.6 63.6 32.9C62.4 34.4 60.7 35.5 58.7 35.6C57.9 35.6 57 35.5 56.3 35C55.8 34.6 55.5 34 55.4 33.4C55.3 32.5 55.6 31.6 55.8 30.8C56.1 29.7 56.3 28.7 56.6 27.6C56.7 27.2 56.8 26.8 56.8 26.4C56.8 26.1 56.6 25.9 56.3 26C55.4 26 54.7 26.6 54 27.1C53.2 29.7 52.6 32.4 51.9 35.1C51 35.7 49.8 35.6 48.8 35.6C48.2 35.5 47.5 35.5 47.2 34.9C47.3 34.3 47.5001 33.8 47.6001 33.3C46.4001 34.6 44.8001 35.5 43.1001 35.6C42.4001 35.7 41.7 35.5 41.3 34.9C40.7 34.1 40.8 33 40.8 32.1C40.1 33.4 39.2 34.6 37.9 35.2C36.6 35.7 35.1 35.8 33.8 35.2C32.9 34.8 32.4 33.9 32.2 33C32 31.7 32.2001 30.4 32.6001 29.2C33.5001 26.6 35.6001 24.5 38.1001 23.4C39.7001 22.7 41.6 22.6 43.3 22.8C44.8 23 46.4001 23.5 47.6001 24.5C47.9001 24.8 47.7 25.2 47.5 25.5C47.1 26.1 46.7 26.7 46 26.8C44.8 25.8 43.2 25.4 41.7 25.4C40.4 25.4 39.2 26.2 38.4 27.2C37.6 28.2 37.1 29.4 36.9 30.6C36.8 31.1 36.7 31.7 37 32.2C37.2 32.6 37.7 32.8 38 32.5C38.6 32.2 39 31.6 39.4 31C40.2 29.7 40.9 28.2 41.4 26.8C42.2 26.4 43.1 26.5 43.9 26.7C44.5 26.9 45.1 27.1 45.5 27.5C45.2 28.5 44.9 29.5 44.7 30.5C44.6 31 44.5001 31.6 44.6001 32.2C44.7001 32.4 44.8001 32.7 45.1001 32.7C45.5001 32.7 45.8 32.5 46.2 32.4C47.2 31.8 48 30.9 48.6 29.9C48.8 29.6 48.9 29.3 48.9 29C49.5 26.9 50.1 24.8 50.8 22.8C51.7 22.4 52.8 22.4 53.8 22.6C54.4 22.7 54.9 22.9 55.3 23.4C55.1 23.9 55 24.4 54.8 24.9C56.1 24 57.4 23 59 22.7C60 22.5 61.3 22.8 61.9 23.8C62.4 24.9 62.2 26.1 61.9 27.2C61.5 28.5 61.1 29.8 60.8 31.1C60.7 31.6 60.6 32.1 60.9 32.6C61.1 32.9 61.5 32.9 61.8 32.7C62.6 32.4 63.1 31.7 63.6 31.1C64.1 30.5 64.5 29.8 64.8 29.1C65.4 27 66.0001 24.9 66.6001 22.8C67.1001 22.5 67.6 22.5 68.2 22.5C69 22.5 69.9 22.6 70.7 23C70.9 23.1 71.1 23.3 71.2 23.5C70.6 25.5 69.9 27.6 69.4 29.6C69.2 30.5 68.8 31.5 69 32.5C69.1 33 69.7 32.9 70 32.7C71.5 32 72.5 30.6 73.3 29.2C73.5 26.9 73.9001 24.7 74.6001 22.5C75.3001 20.6 76.2 18.7 77.5 17.1C77.7 16.2 78.9 15.3 80.3 15ZM80.7 18.2C80.4 18.4 80.2 18.8 80 19.1C79.3 20.3 78.9 21.6 78.5 22.9C78.2 23.9 77.8 24.9 77.5 25.9C78.5 25.4 79.2 24.6 79.8 23.7C80.7 22.4 81.3 21 81.5 19.4C81.5 19 81.6 18.5 81.4 18.2C81.2 17.9 80.9 18 80.7 18.2Z" fill="white"/>
<path fill-rule="evenodd" clip-rule="evenodd" d="M0.299957 27.6C1.09996 34.1 4.99996 39.3 10.6 41.2C10.5 41 10.5 40.8 10.6 40.6C11.3 36.1 11.1 31.6 11.6 27C11.8 24.9 12.1 22.9 12.6 20.8C11.1 22.4 8.69995 22.4 6.89995 23.6C5.99995 24.2 5.49995 25.4 5.99995 26.4C6.19995 26.9 6.69996 27 7.09996 27.3C7.29996 28 6.99996 28.8 6.59996 29.3C6.19996 29.8 5.59996 29.8 5.09996 29.8C3.09996 29.9 1.19996 29.1 0.299957 27.6ZM15 42C15.2 42 15.3 42 15.5 42H17.5C25.2 42 31.5 33.6 31.5 25C31.5 23.4 31.2999 21.7 30.8999 19.9C30.7999 22.8 29.9 25.7 28.3 28.1C26.9 30.3 24.9 32.1 23 33.8C21.2 35.4 19.3 36.9 17.7 38.7C17 39.5 16.4 40.3 16 41.2C15.7 41.6 15.3 41.8 15 42ZM27.5 11.1C26.3 11 25 11.6 24.2 12.5C23.9 12.9 23.5 13.4 23.6 13.9C24.8 15.6 25.4999 17.6 25.3999 19.7C25.3999 22.5 24.4 25.2 22.5 27.2C20.4 29.4 18.2999 31.6 16.3999 33.9C16.6999 28.5 17 23.1 18.3 17.8C18.5 17.3 18 17 17.6 16.9C16.4 16.5 15.0999 16.5 13.8999 16.9C12.9999 17.2 12.4 18 11.6 18.5C9.79996 19.6 7.69995 20 5.69995 20.5C4.19995 20.9 2.59995 21.3 1.39995 22.3C0.899948 22.7 0.499951 23.3 0.199951 23.9C0.399951 18.5 2.09996 13.1 4.09996 9.69997C5.89996 6.69997 11.1999 0.699966 15.3999 0.699966L16.2 0.599976C20.3 0.699976 24.6 5.29998 27.5 11.1Z" fill="white"/>
</svg>
