<svg xmlns="http://www.w3.org/2000/svg" width="191" height="77" fill="none" viewBox="0 0 191 77">
    <path fill="#3C1800" fill-opacity=".8" d="M160.595 9.558c2.723-.567 5.728-.057 7.94 1.644 1.815 1.361 3.006 3.46 3.346 5.728.51 3.686-.454 7.373-2.098 10.662-2.269 4.48-6.125 7.996-10.549 10.151-1.928 1.021-4.026 1.702-6.124 2.325-.511 2.439-.965 5.104-.057 7.486.51 1.418 1.871 2.382 3.346 2.552 3.403.51 6.862-.907 9.244-3.289 1.588-1.474 2.665-3.346 3.743-5.16.964.17 1.815.68 2.438 1.36l-.283 1.361c-2.042 3.63-4.424 7.26-7.997 9.528-3.629 2.382-8.279 2.779-12.419 1.872-2.326-.51-4.594-1.815-5.898-3.857-.908-1.361-1.532-2.949-1.702-4.593-.964 1.53-2.155 2.835-3.402 4.083-2.779 2.835-6.636 4.707-10.662 4.764-1.928 0-3.97-.17-5.558-1.418-1.361-1.078-1.815-2.893-1.758-4.594-2.665 3.346-6.635 5.955-11.002 6.068-1.928.057-3.97-.113-5.558-1.248-1.191-.793-1.814-2.211-1.928-3.572-.227-2.042.397-4.027.851-6.012.624-2.382 1.191-4.82 1.758-7.202.17-.908.454-1.758.454-2.722 0-.567-.568-1.078-1.135-1.021-2.041.057-3.686 1.474-5.274 2.552-1.871 5.955-3.176 12.08-4.707 18.148-2.098 1.304-4.764 1.247-7.146 1.077-1.304-.17-2.948-.34-3.63-1.588.228-1.247.568-2.495.965-3.743-2.665 2.893-6.352 4.99-10.265 5.275-1.531.17-3.289-.284-4.196-1.588-1.305-1.815-1.248-4.197-1.135-6.352-1.53 2.835-3.573 5.671-6.635 7.032-2.892 1.248-6.408 1.361-9.244 0-1.928-.907-3.29-2.836-3.686-4.934-.567-2.835-.057-5.784.794-8.563 1.985-5.955 6.862-10.719 12.533-13.214 3.686-1.645 7.826-1.872 11.796-1.361 3.46.454 7.032 1.531 9.641 3.913.737.624.17 1.645-.17 2.325-.794 1.248-1.758 2.666-3.346 3.006-2.779-2.155-6.352-3.176-9.811-3.063-2.95.057-5.615 1.815-7.43 4.084-1.814 2.211-2.835 5.047-3.459 7.826-.17 1.19-.397 2.552.114 3.686.397.85 1.53 1.248 2.382.794 1.36-.794 2.268-2.098 3.119-3.403 1.871-3.005 3.289-6.238 4.537-9.584 1.7-.907 3.743-.624 5.557-.17 1.361.397 2.723.85 3.743 1.871-.68 2.212-1.36 4.424-1.928 6.692-.283 1.248-.51 2.496-.227 3.743.17.51.51 1.078 1.135 1.135.85.056 1.644-.397 2.381-.794 2.269-1.418 4.027-3.46 5.445-5.672.397-.623.623-1.304.794-2.041 1.36-4.707 2.778-9.414 4.196-14.121 2.099-.908 4.48-.908 6.749-.51 1.248.226 2.439.793 3.346 1.7-.397 1.135-.681 2.27-1.078 3.403 2.836-2.098 5.842-4.31 9.414-4.934 2.382-.34 5.331.114 6.522 2.44 1.191 2.381.624 5.16-.056 7.598-.851 2.95-1.872 5.898-2.552 8.904-.171 1.134-.397 2.382.113 3.46.397.794 1.418.623 2.098.34 1.758-.737 3.006-2.155 4.14-3.63a24.187 24.187 0 0 0 2.722-4.48c1.305-4.764 2.666-9.584 4.14-14.348 1.135-.567 2.382-.68 3.573-.737 1.928 0 3.857.227 5.615 1.077.51.227.907.624 1.247 1.078-1.361 4.65-2.835 9.244-4.14 13.894-.51 2.155-1.304 4.367-.85 6.579.17 1.077 1.531.85 2.268.51 3.46-1.474 5.671-4.764 7.429-7.94.341-5.16 1.361-10.264 2.949-15.198 1.532-4.367 3.516-8.677 6.636-12.193 2.155-2.325 4.82-4.31 7.882-4.877zM44.904 2.525c-.624.68-1.361 1.588-1.19 2.552 2.04 3.12 3.288 6.863 3.118 10.605-.056 4.991-2.098 9.925-5.557 13.554-3.857 3.97-7.883 7.77-11.4 12.023.794-9.754 1.475-19.622 4.084-29.15.453-.85-.51-1.417-1.135-1.7-2.154-.851-4.593-.795-6.748-.114-1.701.51-2.836 1.928-4.31 2.722-3.29 1.928-7.146 2.552-10.832 3.403-2.779.623-5.671 1.304-7.94 3.062C.272 21.581-.862 25.664.726 28.726c1.588 2.95 4.99 4.594 8.28 4.537.964 0 2.155 0 2.835-.85.794-1.021 1.361-2.382 1.078-3.687-.68-.51-1.645-.794-2.042-1.701-.794-1.815.17-4.027 1.815-5.048 3.346-2.041 7.656-1.985 10.548-4.82-.85 3.686-1.474 7.43-1.985 11.229-1.02 8.166-.794 16.503-2.268 24.613-.34.964.397 1.871 1.19 2.268 1.532.85 3.404.907 5.105.737 1.247-.17 2.722-.51 3.46-1.644.793-1.702 1.927-3.176 3.175-4.537 2.95-3.233 6.465-5.898 9.811-8.734 3.573-3.062 7.26-6.125 9.811-10.151 3.63-5.558 5.615-12.306 4.764-18.942-.454-4.367-2.155-8.62-5.047-11.966-2.325-.227-4.707.85-6.352 2.495zm116.712 14.178c-.68.567-1.134 1.305-1.531 2.042-1.474 2.722-2.439 5.671-3.516 8.62-.737 2.269-1.531 4.48-2.155 6.805 2.212-1.134 3.856-3.005 5.217-5.047 1.985-2.892 3.403-6.238 3.913-9.754.057-.908.227-2.042-.34-2.836-.453-.51-1.191-.17-1.588.17z"/>
    <path fill="#3C1800" fill-opacity=".8" d="M135.28 11.409c1.475-.284 3.176-.114 4.424.737 1.134.737 1.758 2.098 1.814 3.403.057 2.041-.85 4.083-2.495 5.387-1.418 1.135-3.289 1.588-5.104 1.418-1.588-.113-3.062-1.134-3.743-2.609-.737-1.474-.454-3.289.284-4.707.964-1.814 2.778-3.232 4.82-3.63zM4.899 75.076l.338 1.216 1.268.26h3.805c1.691 0 2.706-.781 2.706-2.17 0-.869-.508-1.477-1.268-1.737.591-.174 1.014-.782 1.014-1.65 0-1.39-1.014-2.17-2.537-2.17h-3.72l-1.268.26-.338 1.215v4.776zm5.327-1.736c.76 0 1.099.26 1.099.868s-.338.868-1.1.868h-3.55l-.254-.347v-1.476h3.804v.087zm-.17-3.127c.761 0 1.1.261 1.1.869 0 .52-.339.868-1.1.868h-3.72v-1.302l.254-.348h3.466v-.087zm11.669 5.818l.845.608.761-.694-.169-.521-3.044-5.818c-.422-.782-.76-.956-1.353-.956-.507 0-.93.174-1.352.956l-2.96 5.818-.169.52.761.695.846-.608.676-1.302h4.566l.592 1.302zm-1.353-2.692h-3.044L18.85 70.3l1.522 3.04zm4.566 2.519l.76.781.762-.781V74.12l1.353-.955 3.466 3.126.846.434.76-.781-.591-.869-3.129-2.865 3.044-2.171.423-.695-.76-.695-.762.261-4.735 3.386v-2.865l-.76-.782-.762.782v6.426h.085zm15.135-2.519l.76-.694-.76-.695h-3.89v-1.302l.254-.348h4.65l.761-.694-.76-.695h-4.905l-1.183.26-.339 1.216v4.776L35 76.379l1.183.26h4.904l.761-.694-.76-.695h-4.651l-.254-.347v-1.477h3.89v-.087zm7.694.435l1.776 2.344.845.521.761-.694-.338-.782-1.353-1.65c1.015-.347 1.607-1.129 1.607-2.344 0-.782-.254-1.39-.677-1.824a2.743 2.743 0 0 0-1.86-.695h-3.297l-1.184.261-.338 1.216v5.644l.76.781.761-.781v-1.997h2.537zm.676-3.56c.762 0 1.184.347 1.184 1.041 0 .695-.422 1.043-1.184 1.043h-3.128v-1.824l.254-.347h2.874v.087zm12.599-.261l.254-.608-.761-.781-.592.26-3.044 2.953-3.129-2.953-.592-.26-.676.868.254.608 3.382 3.213v2.692l.76.781.762-.781v-2.692l3.382-3.3zm10.23 6.686a3.928 3.928 0 0 0 2.706-1.042l.677.608.676.347.677-.694-.507-.869-.592-.608.676-.868v-1.129l-1.1.087-.76.955-3.467-3.386h4.566l.761-.695-.76-.695H68.82l-.846.608.508.956 1.183 1.215c-1.268.695-1.86 1.39-1.86 2.605 0 .782.338 1.39.93 1.824.761.608 1.607.781 2.537.781zm-1.775-2.692l1.269-1.476 2.198 2.171-1.691.608c-1.015 0-1.776-.434-1.776-1.303zm19.532 2.605l.761-.694-.761-.695h-1.1v-4.95h1.1l.761-.694-.761-.695h-3.72l-.761.695.76.694h1.1v4.95h-1.1l-.76.695.76.694h3.721zm6.51-1.302c-.845 0-1.521-.26-2.029-.695-.507-.434-.76-1.129-.76-1.91 0-.782.253-1.476.76-1.91.508-.435 1.184-.695 2.03-.695.845 0 1.521.26 2.113.694.846.695 1.86-.434.93-1.128-.76-.608-1.775-.956-3.043-.956-1.269 0-2.368.348-3.129 1.042-.845.695-1.268 1.737-1.268 2.953 0 1.216.423 2.258 1.268 2.952.846.695 1.86 1.042 3.129 1.042 1.268 0 2.282-.347 3.043-.955.93-.781 0-1.91-.93-1.129-.592.521-1.268.695-2.113.695zm10.823-1.91l.761-.695-.761-.695h-3.889v-1.302l.254-.348h4.65l.761-.694-.761-.695h-4.904l-1.184.26-.338 1.216v4.776l.338 1.216 1.184.26h4.904l.761-.694-.761-.695h-4.65l-.254-.347v-1.477h3.889v-.087zm13.275 1.91c-.845 0-1.522-.26-2.029-.695-.507-.434-.761-1.129-.761-1.91 0-.782.254-1.476.761-1.91.507-.435 1.268-.695 2.029-.695.846 0 1.522.26 2.114.694.846.695 1.86-.434.93-1.128-.761-.608-1.776-.956-3.044-.956s-2.367.348-3.213 1.042c-.845.695-1.268 1.737-1.268 2.953 0 1.216.423 2.258 1.268 2.952.846.695 1.86 1.042 3.213 1.042 1.268 0 2.283-.347 3.044-.955.93-.781 0-1.91-.93-1.129-.592.521-1.268.695-2.114.695zm9.386-1.476l1.775 2.344.846.521.761-.694-.338-.782-1.353-1.65c1.014-.347 1.606-1.129 1.606-2.344 0-.782-.253-1.39-.676-1.824-.423-.434-1.099-.695-1.86-.695h-3.298l-1.184.261-.338 1.216v5.644l.761.781.761-.781v-1.997h2.537zm.676-3.56c.761 0 1.184.347 1.184 1.041 0 .695-.423 1.043-1.184 1.043h-3.128v-1.824l.253-.347h2.875v.087zm10.231 3.126l.761-.695-.761-.695h-3.889v-1.302l.253-.348h4.651l.761-.694-.761-.695h-4.904l-1.269.26-.338 1.216v4.776l.338 1.216 1.269.26h4.904l.761-.694-.761-.695h-4.735l-.254-.347v-1.477h3.974v-.087zm10.654 2.691l.845.608.761-.694-.169-.521-3.044-5.818c-.423-.782-.761-.956-1.353-.956-.507 0-.93.174-1.353.956l-3.043 5.818-.17.52.761.695.846-.608.676-1.302h4.566l.677 1.302zm-1.438-2.692h-3.044l1.522-3.039 1.522 3.04zm12.937-3.82l-.761-.869-.677.261-.253.347-2.452 2.779-2.452-2.779-1.015-.52-.761.868v6.339l.761.781.761-.781v-4.776l2.029 2.257h1.353l2.029-2.257v4.689l.761.781.761-.781v-6.34h-.084zm7.694 3.82l.761-.694-.761-.695h-3.974v-1.302l.254-.348h4.65l.761-.694-.761-.695h-4.904l-1.268.26-.338 1.216v4.776l.338 1.216 1.268.26h4.904l.761-.694-.761-.695h-4.65l-.254-.347v-1.477h3.974v-.087zm7.695.435l1.775 2.344.846.521.761-.694-.339-.782-1.352-1.65c1.014-.347 1.606-1.129 1.606-2.344 0-.782-.254-1.39-.676-1.824a2.745 2.745 0 0 0-1.86-.695h-3.298l-1.184.261-.338 1.216v5.644l.761.781.761-.781v-1.997h2.537zm.676-3.56c.761 0 1.184.347 1.184 1.041 0 .695-.423 1.043-1.184 1.043h-3.129v-1.824l.254-.347h2.875v.087zm12.598-.261l.254-.608-.761-.781-.592.26-3.044 2.953-3.128-2.953-.592-.26-.761.781.254.608 3.382 3.213v2.692l.761.781.761-.781v-2.692l3.466-3.213z"/>
</svg>
