<svg xmlns="http://www.w3.org/2000/svg" width="62" height="21" fill="none" viewBox="0 0 62 21">
    <path fill="#3C1800" d="M57.883 3.445c.981-.205 2.064-.02 2.862.593.654.49 1.083 1.246 1.206 2.064.184 1.329-.164 2.657-.757 3.843-.817 1.615-2.207 2.882-3.802 3.659-.695.368-1.45.613-2.207.838-.184.879-.348 1.84-.02 2.698.183.51.674.858 1.205.92 1.227.184 2.474-.327 3.332-1.186.573-.531.96-1.206 1.35-1.86.347.061.653.245.878.49l-.102.491c-.736 1.308-1.594 2.617-2.882 3.434-1.308.859-2.984 1.002-4.477.675-.838-.184-1.655-.654-2.125-1.39a3.704 3.704 0 0 1-.614-1.656c-.347.552-.776 1.022-1.226 1.472-1.002 1.022-2.392 1.696-3.843 1.717-.695 0-1.43-.061-2.003-.511-.49-.389-.654-1.043-.634-1.656-.96 1.206-2.391 2.146-3.965 2.187-.695.02-1.43-.04-2.003-.45-.43-.286-.654-.797-.695-1.287-.082-.736.143-1.451.306-2.167.225-.858.43-1.737.634-2.596.061-.327.164-.633.164-.98a.389.389 0 0 0-.41-.369c-.735.02-1.328.532-1.9.92-.675 2.146-1.145 4.354-1.697 6.54-.756.471-1.717.45-2.575.39-.47-.062-1.063-.123-1.308-.573.081-.45.204-.9.347-1.35-.96 1.043-2.29 1.8-3.7 1.902-.551.061-1.185-.102-1.512-.573-.47-.654-.45-1.512-.409-2.289-.552 1.022-1.288 2.044-2.391 2.535-1.043.45-2.31.49-3.332 0-.695-.327-1.186-1.022-1.329-1.779-.204-1.022-.02-2.084.286-3.086.716-2.146 2.474-3.863 4.518-4.763 1.328-.592 2.82-.674 4.251-.49 1.247.163 2.535.552 3.475 1.41.266.225.061.593-.061.838-.286.45-.634.96-1.206 1.084-1.002-.777-2.29-1.145-3.536-1.104-1.063.02-2.024.654-2.678 1.472-.654.797-1.022 1.819-1.247 2.82-.061.43-.143.92.04 1.329.144.306.553.45.86.286.49-.286.817-.756 1.124-1.226.674-1.084 1.185-2.249 1.635-3.455.613-.327 1.349-.225 2.003-.061.49.143.981.306 1.35.674-.246.798-.491 1.595-.696 2.412-.102.45-.184.9-.082 1.35.062.183.184.388.41.408.306.02.592-.143.858-.286.817-.51 1.45-1.247 1.962-2.044a2.3 2.3 0 0 0 .286-.736c.49-1.696 1.002-3.393 1.513-5.09.756-.326 1.614-.326 2.432-.183.45.081.879.286 1.206.613-.143.409-.245.817-.388 1.226 1.022-.756 2.105-1.553 3.393-1.778.858-.123 1.921.04 2.35.879.43.858.225 1.86-.02 2.739-.307 1.063-.675 2.126-.92 3.209-.061.409-.143.858.041 1.247.143.286.511.225.756.122.634-.265 1.084-.776 1.492-1.308a8.728 8.728 0 0 0 .982-1.615c.47-1.716.96-3.454 1.492-5.17.409-.205.858-.246 1.287-.267.695 0 1.39.082 2.024.389.184.082.327.225.45.388-.49 1.676-1.022 3.332-1.492 5.008-.184.777-.47 1.574-.307 2.371.061.389.552.307.818.184 1.247-.531 2.044-1.717 2.677-2.862.123-1.86.49-3.7 1.063-5.478.552-1.574 1.268-3.127 2.392-4.394.776-.838 1.737-1.554 2.841-1.758zM16.185.91c-.225.246-.49.573-.43.92.736 1.124 1.186 2.473 1.125 3.822-.02 1.8-.757 3.577-2.003 4.886-1.39 1.43-2.842 2.8-4.11 4.333.287-3.516.532-7.072 1.473-10.506.163-.307-.184-.511-.41-.614-.776-.306-1.655-.286-2.432-.04-.613.184-1.022.695-1.553.98-1.186.696-2.576.92-3.904 1.227-1.002.225-2.044.47-2.862 1.104C.1 7.778-.31 9.25.262 10.354c.572 1.063 1.798 1.655 2.984 1.635.347 0 .777 0 1.022-.307.286-.368.49-.858.388-1.328-.245-.184-.592-.286-.736-.614-.286-.654.062-1.45.655-1.819 1.205-.736 2.759-.715 3.801-1.737a44.053 44.053 0 0 0-.715 4.047c-.368 2.943-.286 5.948-.818 8.871-.122.348.143.675.43.818.552.306 1.226.327 1.84.265.449-.06.98-.183 1.246-.592.286-.613.695-1.145 1.145-1.636 1.063-1.165 2.33-2.125 3.536-3.147 1.288-1.104 2.616-2.208 3.536-3.66 1.308-2.002 2.024-4.435 1.717-6.826-.163-1.574-.777-3.107-1.819-4.313-.838-.082-1.697.306-2.29.9zM58.25 6.02c-.245.205-.409.47-.552.736-.531.981-.879 2.044-1.267 3.107-.266.818-.552 1.615-.777 2.453.797-.409 1.39-1.083 1.88-1.82.716-1.042 1.227-2.248 1.41-3.515.021-.327.083-.736-.122-1.022-.163-.184-.429-.061-.572.061z"/>
    <path fill="#3C1800" d="M48.759 4.112c.531-.102 1.144-.04 1.594.266.409.266.634.756.654 1.226a2.41 2.41 0 0 1-.9 1.942c-.51.409-1.185.573-1.839.511a1.64 1.64 0 0 1-1.349-.94c-.266-.531-.163-1.186.102-1.697.348-.654 1.002-1.165 1.738-1.308z"/>
</svg>
