<svg xmlns="http://www.w3.org/2000/svg" width="100" height="32" fill="none" viewBox="0 0 100 32">
    <path fill="#B46834" d="M93.36 5.43c1.582-.322 3.33-.032 4.615.935 1.055.773 1.748 1.965 1.945 3.254.297 2.095-.263 4.19-1.22 6.058-1.318 2.546-3.56 4.544-6.132 5.768-1.12.58-2.34.967-3.56 1.321-.297 1.386-.56 2.9-.033 4.253.297.806 1.088 1.354 1.945 1.45 1.978.29 3.99-.515 5.374-1.869.923-.837 1.55-1.9 2.176-2.932.56.097 1.055.387 1.417.774l-.164.773c-1.187 2.062-2.572 4.124-4.649 5.413-2.11 1.354-4.813 1.58-7.22 1.064-1.352-.29-2.67-1.031-3.429-2.191-.527-.774-.89-1.676-.989-2.61-.56.87-1.253 1.61-1.978 2.32-1.615 1.61-3.857 2.674-6.198 2.706-1.12 0-2.308-.096-3.23-.805-.792-.613-1.056-1.644-1.023-2.61-1.55 1.9-3.857 3.383-6.396 3.447-1.12.033-2.308-.064-3.23-.708-.693-.452-1.056-1.257-1.121-2.03-.132-1.16.23-2.288.494-3.416.363-1.353.692-2.739 1.022-4.092.099-.516.264-1 .264-1.547 0-.322-.33-.612-.66-.58-1.187.032-2.143.838-3.066 1.45-1.088 3.383-1.846 6.863-2.736 10.311-1.22.741-2.77.71-4.154.612-.758-.096-1.714-.193-2.11-.902.132-.709.33-1.418.56-2.127-1.55 1.644-3.692 2.836-5.967 2.997-.89.097-1.912-.16-2.44-.902-.758-1.031-.725-2.384-.659-3.609-.89 1.611-2.077 3.222-3.857 3.996-1.681.709-3.726.773-5.374 0-1.12-.516-1.912-1.611-2.143-2.804-.33-1.61-.033-3.286.462-4.865 1.153-3.384 3.989-6.09 7.286-7.508 2.143-.935 4.55-1.063 6.857-.773 2.011.257 4.088.87 5.605 2.223.428.354.099.934-.1 1.321-.46.709-1.021 1.515-1.944 1.708-1.616-1.225-3.693-1.805-5.704-1.74-1.714.032-3.264 1.031-4.319 2.32-1.055 1.257-1.648 2.868-2.01 4.447-.1.676-.232 1.45.065 2.094.23.483.89.709 1.385.451.791-.451 1.319-1.192 1.813-1.933 1.088-1.708 1.912-3.545 2.638-5.446.989-.515 2.175-.354 3.23-.096.792.225 1.583.483 2.176 1.063-.395 1.256-.79 2.513-1.12 3.802-.165.709-.297 1.418-.133 2.127.1.29.297.612.66.644.494.032.956-.225 1.385-.45 1.318-.806 2.34-1.966 3.165-3.223.23-.355.362-.741.461-1.16.791-2.675 1.615-5.35 2.44-8.023 1.22-.516 2.604-.516 3.923-.29.725.128 1.418.45 1.945.966-.23.645-.395 1.29-.626 1.933 1.648-1.192 3.395-2.448 5.472-2.803 1.385-.193 3.1.065 3.792 1.386.692 1.353.362 2.932-.033 4.317-.495 1.676-1.088 3.352-1.484 5.06-.099.644-.23 1.353.066 1.965.231.451.824.354 1.22.193 1.022-.419 1.747-1.224 2.407-2.062.626-.805 1.154-1.643 1.582-2.545.758-2.707 1.55-5.446 2.407-8.153.66-.322 1.385-.386 2.077-.419 1.12 0 2.242.13 3.264.613.296.128.527.354.725.612-.791 2.642-1.648 5.252-2.407 7.894-.296 1.225-.758 2.481-.494 3.738.099.612.89.483 1.319.29 2.01-.838 3.296-2.707 4.318-4.511.198-2.932.792-5.832 1.715-8.636.89-2.48 2.044-4.93 3.857-6.927C90.03 6.88 91.58 5.752 93.36 5.43zM26.104 1.435c-.362.387-.791.902-.692 1.45 1.187 1.772 1.912 3.899 1.813 6.025-.033 2.836-1.22 5.64-3.23 7.702-2.243 2.255-4.583 4.414-6.627 6.83.461-5.541.857-11.148 2.373-16.562.264-.483-.296-.805-.659-.966-1.253-.484-2.67-.451-3.923-.065-.99.29-1.649 1.096-2.506 1.547-1.912 1.096-4.154 1.45-6.297 1.933-1.615.355-3.297.741-4.615 1.74C.158 12.262-.501 14.582.42 16.322c.924 1.675 2.902 2.61 4.814 2.577.56 0 1.253 0 1.649-.483.461-.58.791-1.353.626-2.094-.396-.29-.956-.451-1.187-.967-.461-1.031.1-2.288 1.055-2.868 1.945-1.16 4.451-1.128 6.132-2.739-.494 2.095-.857 4.221-1.153 6.38-.594 4.64-.462 9.377-1.32 13.985-.197.548.231 1.063.693 1.289.89.483 1.978.515 2.967.419.726-.097 1.583-.29 2.011-.935.462-.967 1.121-1.804 1.847-2.578 1.714-1.836 3.758-3.35 5.703-4.962 2.077-1.74 4.22-3.48 5.704-5.768 2.11-3.157 3.263-6.992 2.769-10.762-.264-2.481-1.253-4.898-2.934-6.799-1.352-.129-2.737.483-3.693 1.418zm67.85 8.055c-.396.323-.66.742-.891 1.16-.857 1.547-1.418 3.223-2.044 4.898-.429 1.29-.89 2.546-1.253 3.867 1.286-.645 2.242-1.708 3.033-2.868 1.154-1.643 1.978-3.544 2.275-5.542.033-.516.132-1.16-.198-1.611-.264-.29-.692-.097-.923.096z"/>
    <path fill="#B46834" d="M78.643 6.482c.857-.16 1.846-.064 2.571.42.66.418 1.022 1.191 1.055 1.933.033 1.16-.494 2.32-1.45 3.06-.825.645-1.912.903-2.967.806-.924-.064-1.78-.644-2.176-1.482-.429-.838-.264-1.869.165-2.675.56-1.03 1.615-1.836 2.802-2.062z"/>
</svg>
