<svg xmlns="http://www.w3.org/2000/svg" width="18" height="18" fill="none" viewBox="0 0 18 18">
    <path fill="#3C1800" fill-opacity=".5" d="M9 0a6.335 6.335 0 0 0-6.328 6.328c0 1.179.326 2.33.944 3.328L8.64 17.75c.096.155.266.249.448.249h.004a.527.527 0 0 0 .448-.256l4.896-8.174a6.32 6.32 0 0 0 .892-3.242A6.335 6.335 0 0 0 9 0zm4.53 9.029l-4.45 7.43L4.513 9.1a5.267 5.267 0 0 1-.793-2.772A5.291 5.291 0 0 1 9 1.048a5.288 5.288 0 0 1 5.277 5.28c0 .954-.26 1.888-.747 2.7z"/>
    <path fill="#3C1800" fill-opacity=".5" d="M9 3.164a3.168 3.168 0 0 0-3.164 3.164A3.16 3.16 0 0 0 9 9.492c1.79 0 3.164-1.45 3.164-3.164A3.168 3.168 0 0 0 9 3.164zm0 5.28c-1.17 0-2.116-.95-2.116-2.116 0-1.163.953-2.116 2.116-2.116a2.12 2.12 0 0 1 2.113 2.116A2.114 2.114 0 0 1 9 8.445z"/>
</svg>
