<svg xmlns="http://www.w3.org/2000/svg" width="18" height="18" fill="none" viewBox="0 0 18 18">
    <g fill="#3C1800" fill-opacity=".7" clip-path="url(#a)">
        <path d="M17.367 10.42c.537-4.52-.258-7.374-1.692-8.665-2.314-2.205-10.13-2.531-12.9.098-1.243 1.287-1.681 3.174-1.73 5.511-.047 2.338-.104 6.717 3.977 7.905h.003l-.003 1.815s-.028.735.441.882c.537.174.78-.167 2.45-2.162 2.794.242 4.939-.313 5.182-.394.564-.189 3.756-.61 4.272-4.99zm-9.178 4.108S6.42 16.732 5.87 17.304c-.18.186-.377.169-.374-.2 0-.242.014-3.012.014-3.012-3.46-.992-3.256-4.72-3.219-6.671.038-1.952.395-3.55 1.448-4.626 2.429-2.278 9.282-1.769 11.028-.128 2.134 1.892 1.375 7.238 1.379 7.42-.439 3.656-3.025 3.888-3.5 4.046-.203.068-2.09.553-4.458.395z"/>
        <path d="M9.168 3.223c-.289 0-.289.45 0 .454 2.24.017 4.085 1.578 4.105 4.443 0 .302.443.298.439-.004-.025-3.086-2.04-4.876-4.544-4.893z"/>
        <path d="M12.114 7.645c-.007.298.435.313.438.01.037-1.701-1.012-3.103-2.984-3.251-.289-.021-.319.433-.03.454 1.71.13 2.61 1.297 2.576 2.787zM11.64 9.58c-.37-.214-.747-.08-.903.13l-.326.423c-.166.214-.476.186-.476.186C7.675 9.72 7.07 7.356 7.07 7.356s-.028-.32.18-.492l.407-.338c.204-.162.333-.552.126-.935-.555-1.003-.928-1.349-1.118-1.614-.2-.25-.5-.306-.811-.137h-.007c-.649.38-1.36 1.09-1.132 1.82.388.772 1.1 3.23 3.371 5.086 1.068.879 2.757 1.779 3.474 1.986l.006.01c.707.236 1.394-.502 1.76-1.17v-.005c.163-.323.11-.63-.128-.83-.422-.41-1.058-.864-1.557-1.156z"/>
        <path d="M9.878 6.078c.72.042 1.07.419 1.108 1.192.013.302.452.281.438-.021-.047-1.01-.574-1.572-1.522-1.625-.289-.017-.316.437-.024.454z"/>
    </g>
    <defs>
        <clipPath id="a">
            <path fill="#fff" d="M0 0h18v18H0z"/>
        </clipPath>
    </defs>
</svg>
