<svg xmlns="http://www.w3.org/2000/svg" width="18" height="18" fill="none" viewBox="0 0 18 18">
    <g fill="#5F5F5F" fill-opacity=".7" clip-path="url(#a)">
        <path d="M9.002 0c-4.963 0-9 4.037-9 9s4.037 9 9 9c4.962 0 9-4.037 9-9s-4.037-9-9-9zm0 16.768c-4.283 0-7.768-3.485-7.768-7.768 0-4.283 3.485-7.768 7.768-7.768 4.283 0 7.768 3.485 7.768 7.768 0 4.283-3.485 7.768-7.768 7.768z"/>
        <path d="M13.644 8.88H9.369V4.21a.616.616 0 1 0-1.232 0v5.286c0 .34.276.616.616.616h4.891a.616.616 0 1 0 0-1.232z"/>
    </g>
    <defs>
        <clipPath id="a">
            <path fill="#fff" d="M0 0h18v18H0z"/>
        </clipPath>
    </defs>
</svg>
