<svg xmlns="http://www.w3.org/2000/svg" width="20" height="20" fill="none" viewBox="0 0 20 20">
    <path fill="#bf1731" d="M5.293 8.78c-1.626 0-2.95 1.311-2.95 2.921 0 1.613 1.332 2.96 2.95 2.96s2.95-1.347 2.95-2.96c0-1.61-1.324-2.92-2.95-2.92zm0 4.713c-.963 0-1.777-.82-1.777-1.792 0-.966.797-1.752 1.777-1.752.98 0 1.777.786 1.777 1.752 0 .972-.814 1.792-1.777 1.792zM14.707 8.78c-1.626 0-2.95 1.311-2.95 2.921 0 1.613 1.332 2.96 2.95 2.96s2.95-1.347 2.95-2.96c0-1.61-1.324-2.92-2.95-2.92zm0 4.713c-.963 0-1.777-.82-1.777-1.792 0-.966.797-1.752 1.777-1.752.98 0 1.777.786 1.777 1.752 0 .972-.814 1.792-1.777 1.792z"/>
    <path fill="#bf1731" d="M14.707 11.117c-.324 0-.605.262-.605.584 0 .323.281.624.605.624.324 0 .605-.3.605-.623s-.281-.585-.605-.585z"/>
    <path fill="#bf1731" d="M19.377 8.363l.557-1.064a.586.586 0 0 0-.52-.854H18.18C16.315 4.245 13.282 2.94 10 2.94S3.685 4.245 1.821 6.445H.586a.586.586 0 0 0-.52.853l.557 1.065C.23 9.34 0 10.771 0 11.701c0 2.907 2.387 5.296 5.293 5.296a5.245 5.245 0 0 0 3.633-1.459l.55 1.098a.586.586 0 0 0 1.048 0l.55-1.098a5.245 5.245 0 0 0 3.633 1.46c2.906 0 5.293-2.39 5.293-5.297 0-.93-.23-2.36-.623-3.338zm-.929-.75l-.13.249a5.343 5.343 0 0 0-.288-.25h.418zm-16.478 0c-.099.08-.195.163-.288.249l-.13-.25h.418zm3.323 8.216a4.13 4.13 0 0 1-4.121-4.128c0-2.25 1.846-4.088 4.121-4.088 2.272 0 4.121 1.834 4.121 4.088a4.13 4.13 0 0 1-4.121 4.128zM10 15.07l-.257-.514c.093-.144.179-.291.257-.442.078.15.164.298.257.442l-.257.513zm0-5.77a5.303 5.303 0 0 0-4.707-2.854h-1.84C5.106 4.965 7.464 4.108 10 4.108s4.893.857 6.548 2.337h-1.841A5.303 5.303 0 0 0 10 9.299zm4.707 6.53a4.13 4.13 0 0 1-4.121-4.128c0-2.254 1.849-4.088 4.121-4.088 2.276 0 4.121 1.838 4.121 4.088a4.13 4.13 0 0 1-4.121 4.128z"/>
    <path fill="#bf1731" d="M5.293 12.364a.605.605 0 1 0 .002-1.21.605.605 0 0 0-.002 1.21z"/>
</svg>
