<svg xmlns="http://www.w3.org/2000/svg" width="20" height="20" fill="none" viewBox="0 0 20 20">
    <path fill="#5F5F5F" d="M5.293 8.809c-1.626 0-2.95 1.314-2.95 2.93 0 1.617 1.332 2.968 2.95 2.968s2.95-1.35 2.95-2.969c0-1.615-1.324-2.93-2.95-2.93zm0 4.726c-.963 0-1.777-.822-1.777-1.797 0-.969.797-1.758 1.777-1.758.98 0 1.777.79 1.777 1.758 0 .975-.814 1.797-1.777 1.797zM14.707 8.809c-1.626 0-2.95 1.314-2.95 2.93 0 1.617 1.332 2.968 2.95 2.968s2.95-1.35 2.95-2.969c0-1.615-1.324-2.93-2.95-2.93zm0 4.726c-.963 0-1.777-.822-1.777-1.797 0-.969.797-1.758 1.777-1.758.98 0 1.777.79 1.777 1.758 0 .975-.814 1.797-1.777 1.797z"/>
    <path fill="#5F5F5F" d="M14.707 11.152a.603.603 0 0 0-.605.586c0 .324.281.625.605.625.324 0 .605-.301.605-.625a.603.603 0 0 0-.605-.586z"/>
    <path fill="#5F5F5F" d="M19.377 8.39l.557-1.069a.585.585 0 0 0-.52-.856H18.18C16.315 4.259 13.282 2.949 10 2.949S3.685 4.26 1.821 6.465H.586a.586.586 0 0 0-.52.856L.623 8.39C.23 9.37 0 10.805 0 11.74c0 2.915 2.387 5.312 5.293 5.312a5.236 5.236 0 0 0 3.633-1.464l.55 1.1a.586.586 0 0 0 1.048 0l.55-1.1a5.236 5.236 0 0 0 3.633 1.464c2.906 0 5.293-2.397 5.293-5.313 0-.933-.23-2.368-.623-3.349zm-.929-.753l-.13.25a5.348 5.348 0 0 0-.288-.25h.418zm-16.478 0c-.099.08-.195.163-.288.25l-.13-.25h.418zm3.323 8.242c-2.272 0-4.121-1.857-4.121-4.14 0-2.259 1.846-4.102 4.121-4.102 2.272 0 4.121 1.84 4.121 4.101 0 2.293-1.859 4.14-4.121 4.14zM10 15.116l-.257-.515c.093-.144.179-.292.257-.444.078.152.164.3.257.444l-.257.515zm0-5.788a5.301 5.301 0 0 0-4.707-2.863h-1.84C5.106 4.98 7.464 4.12 10 4.12s4.893.86 6.548 2.344h-1.841A5.301 5.301 0 0 0 10 9.328zm4.707 6.55c-2.266 0-4.121-1.85-4.121-4.14 0-2.261 1.849-4.101 4.121-4.101 2.276 0 4.121 1.844 4.121 4.101 0 2.284-1.849 4.14-4.121 4.14z"/>
    <path fill="#5F5F5F" d="M5.293 12.402a.605.605 0 1 0 0-1.21.605.605 0 0 0 0 1.21z"/>
</svg>
